<svg width="160" height="160" viewBox="0 0 160 160" fill="none" xmlns="http://www.w3.org/2000/svg">
<path d="M46.6667 126.667H40C21.5905 126.667 6.66666 111.743 6.66666 93.3333C6.66666 75.6663 20.4108 61.2095 37.79 60.072C45.265 44.2668 61.3557 33.3333 80 33.3333C103.511 33.3333 122.962 50.7201 126.195 73.3373C126.352 73.3346 126.509 73.3333 126.667 73.3333C141.394 73.3333 153.333 85.2723 153.333 99.9999C153.333 114.728 141.394 126.667 126.667 126.667H113.333" stroke="#00737A" stroke-width="6" stroke-linecap="round" stroke-linejoin="round"/>
<path d="M60 100L80 120M80 120L100 100M80 120L80 66.6667" stroke="#00737A" stroke-width="6" stroke-linecap="round" stroke-linejoin="round"/>
</svg>
