<svg width="263" height="271" viewBox="0 0 263 271" fill="none" xmlns="http://www.w3.org/2000/svg">
<path d="M81 129H245V240H81V129Z" fill="#FDFDFC"/>
<path d="M78 141V153" stroke="white" stroke-width="7"/>
<path fill-rule="evenodd" clip-rule="evenodd" d="M219.278 0.964922C221.958 -0.400936 224.868 -0.347872 227.442 1.32339C228.84 2.49332 229.892 3.97175 230.47 5.7112C230.679 8.30492 230.525 10.5071 228.897 12.6568C227.744 13.9206 226.443 14.7442 224.811 15.2576H223.906C223.835 19.0075 223.789 22.757 223.772 26.5075C223.764 28.2489 223.746 29.9897 223.71 31.7309C223.679 33.2496 223.665 34.7691 223.667 36.2883C223.668 37.0923 223.66 37.8944 223.635 38.6979C223.402 41.952 223.402 41.9529 224.545 44.8512C225.558 45.6781 226.666 46.1534 227.879 46.6083C228.817 47.0164 229.598 47.6305 230.4 48.2579C230.556 48.3784 230.713 48.4974 230.872 48.6218C233.117 50.375 234.829 52.148 235.452 55.0336C235.558 56.355 235.558 57.6732 235.558 58.9983C235.558 59.3851 235.56 59.7729 235.563 60.1599C235.565 60.969 235.567 61.7792 235.565 62.5883C235.565 63.6162 235.57 64.6437 235.579 65.6716C235.583 66.4703 235.586 67.2689 235.583 68.0676C235.583 68.4463 235.588 68.8264 235.593 69.2051C235.623 72.3589 235.224 75.1851 233.069 77.6654C231.915 78.7978 230.639 79.7604 229.34 80.7163C229.198 80.8219 229.054 80.9282 228.908 81.0371C228.487 81.3489 228.064 81.6588 227.641 81.9668C227.513 82.06 227.385 82.154 227.254 82.2499C226.075 83.0921 225.146 83.7214 223.678 83.673C223.692 83.9621 223.707 84.2511 223.721 84.549C223.771 85.6344 223.803 86.7212 223.828 87.8075C223.842 88.2756 223.861 88.7439 223.885 89.2116C224.087 93.3095 224.085 93.3097 223.12 94.4942C222.464 95.1476 221.724 95.653 220.962 96.1733C220.655 96.4593 220.356 96.7533 220.068 97.0574C219.943 97.1845 219.818 97.3117 219.689 97.4428C219.568 97.5672 219.446 97.692 219.321 97.8201C218.382 98.7735 217.438 99.7032 216.419 100.572C215.874 101.038 215.342 101.518 214.809 101.998C214.628 102.16 214.447 102.321 214.261 102.488C213.687 103.02 213.135 103.569 212.586 104.127C209.399 107.363 209.398 107.364 208.025 108.528C207.355 109.123 206.744 109.774 206.127 110.423C204.669 111.792 203.701 112.52 201.66 112.466C201.459 112.466 201.258 112.466 201.051 112.466C200.391 112.465 199.731 112.455 199.072 112.444C198.613 112.442 198.154 112.44 197.695 112.439C196.491 112.434 195.286 112.419 194.082 112.404C192.635 112.387 191.188 112.382 189.741 112.374C187.546 112.361 185.351 112.333 183.156 112.31V121.63C184.175 121.627 184.175 121.627 185.215 121.624C191.464 121.611 197.712 121.601 203.961 121.595C204.781 121.594 205.602 121.593 206.422 121.592C206.667 121.592 206.669 121.592 206.919 121.592C209.556 121.589 212.193 121.585 214.83 121.578C217.541 121.572 220.253 121.566 222.964 121.565C224.484 121.564 226.005 121.562 227.525 121.557C228.959 121.552 230.394 121.55 231.828 121.552C232.351 121.551 232.875 121.551 233.399 121.549C237.505 121.529 241.397 121.801 245.298 123.179C245.628 123.288 245.628 123.287 245.963 123.398C249.453 124.594 252.279 126.659 254.877 129.244C254.995 129.361 255.115 129.478 255.237 129.599C256.054 130.435 256.054 130.437 256.054 130.95H256.503C260.229 135.338 261.86 140.788 261.826 146.461C261.823 146.624 261.826 146.789 261.826 146.957C261.812 149.639 261.51 152.062 260.58 154.587C260.504 154.825 260.428 155.064 260.349 155.309C259.258 158.354 256.568 162.863 253.65 164.457C252.775 165.406 252.946 166.444 252.951 167.694C252.946 167.967 252.944 168.241 252.939 168.524C252.93 169.285 252.93 170.048 252.928 170.809C252.925 171.63 252.918 172.452 252.909 173.273C252.895 175.069 252.888 176.864 252.884 178.66C252.879 179.783 252.875 180.907 252.87 182.029C252.856 185.139 252.845 188.248 252.84 191.358V192.565C252.84 192.969 252.838 193.374 252.838 193.778C252.838 193.978 252.838 194.18 252.838 194.387C252.833 197.632 252.812 200.877 252.787 204.122C252.759 207.456 252.745 210.79 252.743 214.124C252.743 215.995 252.736 217.867 252.715 219.738C252.699 221.333 252.695 222.928 252.704 224.522C252.708 225.335 252.706 226.146 252.69 226.959C252.498 230.491 252.498 230.492 253.853 233.607C254.542 234.306 255.295 234.867 256.102 235.418C258.947 237.618 260.744 242.45 261.258 245.959C261.789 252.238 260.377 258.356 256.28 263.234C256.132 263.417 255.987 263.597 255.837 263.785C252.455 267.82 247.003 270.463 241.792 270.961C237.145 271.222 233.286 270.166 229.155 268.021C228.976 267.929 228.798 267.836 228.615 267.741C227.75 267.278 226.967 266.803 226.204 266.185C225.114 265.341 223.914 264.906 222.631 264.427C222.22 264.269 221.808 264.112 221.396 263.954C221.092 263.836 220.788 263.718 220.484 263.602C218.404 262.81 216.334 261.99 214.264 261.175C213.165 260.741 212.064 260.311 210.965 259.877C210.756 259.796 210.546 259.715 210.331 259.63C209.349 259.245 208.367 258.858 207.383 258.476C205.706 257.825 204.037 257.16 202.38 256.461C201.103 255.928 199.811 255.437 198.522 254.937C198.216 254.819 197.91 254.701 197.604 254.583C196 253.959 194.395 253.341 192.788 252.727C189.449 251.456 186.123 250.158 182.818 248.799C180.268 247.75 177.702 246.744 175.127 245.76C173.357 245.084 171.604 244.377 169.873 243.604C168.732 243.291 167.832 243.837 166.826 244.354C166.692 244.421 166.557 244.491 166.418 244.56C165.601 244.979 164.791 245.41 163.983 245.846C158.715 248.685 158.715 248.688 156.894 248.688V251.187C154.768 251.231 152.699 251.115 150.585 250.9C146.519 250.494 142.479 250.397 138.395 250.416C137.5 250.418 136.605 250.416 135.71 250.413C126.143 250.376 116.817 251.849 107.542 254.17C107.387 254.207 107.232 254.249 107.072 254.288C105.395 254.708 103.739 255.155 102.109 255.734C101.772 255.847 101.434 255.958 101.097 256.072C100.847 256.158 100.847 256.16 100.592 256.246C100.341 256.329 100.34 256.329 100.085 256.415C99.8364 256.498 99.8357 256.498 99.5826 256.584C98.736 256.869 97.8872 257.14 97.0297 257.39C95.4125 257.874 93.8239 258.444 92.2325 259.004C91.6885 259.196 91.1422 259.386 90.5977 259.576C87.0611 260.818 83.6278 262.224 80.2651 263.887C78.7784 264.589 78.7787 264.591 77.8625 264.616C76.9238 264.262 76.0956 263.78 75.2397 263.261C74.8553 263.032 74.4698 262.805 74.0855 262.576C73.8896 262.458 73.6938 262.342 73.4921 262.219C72.5751 261.673 71.6488 261.14 70.7244 260.605C69.5261 259.91 68.3313 259.208 67.1407 258.502C63.5602 256.373 59.9437 254.418 56.1717 252.653C55.46 252.317 54.7499 251.977 54.0403 251.639C47.4798 248.523 41.0206 246.341 33.861 245.146C33.3263 245.056 32.7924 244.961 32.2586 244.866C28.9268 244.287 25.5588 244 22.1943 243.685C21.9709 242.705 21.7491 241.725 21.5286 240.745C21.4658 240.47 21.4027 240.192 21.338 239.909C21.0087 238.438 20.7352 237.005 20.6078 235.501C20.3943 235.504 20.1808 235.506 19.9608 235.508C19.1477 235.513 18.3338 235.513 17.5206 235.515C17.1721 235.518 16.8223 235.52 16.4737 235.522C15.2862 235.527 14.0988 235.52 12.9114 235.501C12.7424 235.501 12.5728 235.499 12.3987 235.497C11.9064 235.49 11.4142 235.478 10.9222 235.46C10.6373 235.45 10.3513 235.441 10.0578 235.432C8.57805 235.128 7.86543 233.952 7.02701 232.775C6.69024 232.351 6.3493 231.93 6.0069 231.511C5.84144 231.304 5.67538 231.098 5.50491 230.886C4.98397 230.271 4.43441 229.713 3.85662 229.153C1.87577 227.166 0.484328 225.753 0.431228 222.889C0.43225 222.337 0.444202 221.784 0.455389 221.231C0.455966 220.83 0.45654 220.428 0.455389 220.027C0.454812 218.946 0.465277 217.865 0.479548 216.784C0.492348 215.651 0.493243 214.516 0.495656 213.383C0.501975 211.241 0.520807 209.099 0.541293 206.957C0.564117 204.518 0.574032 202.077 0.584245 199.637C0.605502 194.621 0.640783 189.606 0.686255 184.59C0.857011 184.497 1.02845 184.403 1.20436 184.307C1.42875 184.184 1.65502 184.061 1.88622 183.935C2.21959 183.753 2.21969 183.752 2.56003 183.566C3.22018 183.203 3.87544 182.832 4.52775 182.455C4.75022 182.328 4.97236 182.199 5.20156 182.067C5.65941 181.804 6.11888 181.539 6.57602 181.275C6.79657 181.148 7.01721 181.022 7.24445 180.892C7.44195 180.778 7.63957 180.664 7.84308 180.547C8.66364 180.13 9.33726 180.014 10.2511 180.029C10.6713 180.037 10.6733 180.036 11.1021 180.043C11.0645 179.877 11.0253 179.711 10.9866 179.539C9.75135 174.043 9.75036 174.042 9.41618 172.132C9.12306 170.504 8.74946 168.897 8.36924 167.287C7.66504 164.302 7.0068 161.307 6.36125 158.309C6.16615 157.403 5.97118 156.498 5.77603 155.592C5.7283 155.371 5.68025 155.149 5.63108 154.921C4.9426 151.729 4.23442 148.54 3.52376 145.353C3.39531 144.777 3.26812 144.199 3.13987 143.623C2.91028 142.591 2.68032 141.56 2.44996 140.529C2.36186 140.134 2.27209 139.74 2.1842 139.345C1.72617 135.805 1.7265 135.803 0.460758 132.766C0.413641 132.394 0.377977 132.02 0.348009 131.645C0.290926 130.811 0.289579 130.81 0.00708026 130.039C-0.00195753 129.585 -0.00275424 129.129 0.00708026 128.675C2.56372 129.867 5.09759 131.107 7.61759 132.375C7.83655 132.486 7.83685 132.487 8.06054 132.599C9.28432 133.215 10.5097 133.831 11.7329 134.448C12.7942 134.983 13.8548 135.52 14.9167 136.055C15.1381 136.166 15.1397 136.165 15.365 136.278C17.4936 137.348 19.6332 138.395 21.7836 139.421C23.6868 140.328 25.5756 141.264 27.4586 142.213C27.6219 142.295 27.7843 142.379 27.9525 142.464C30.0111 143.499 32.0632 144.546 34.0947 145.633C35.3091 146.282 36.5388 146.9 37.7723 147.512C40.2399 148.739 42.6498 150.067 45.0581 151.406C45.2395 151.507 45.4215 151.607 45.6084 151.711C47.1294 152.556 48.6492 153.405 50.164 154.261C51.8142 155.191 53.4721 156.103 55.1624 156.959C55.3043 157.031 55.4459 157.105 55.592 157.18C57.9121 158.377 57.9128 158.377 60.4536 158.452C61.4031 158.097 62.3142 157.673 63.2266 157.234C64.0036 156.86 64.7877 156.498 65.5703 156.137C65.729 156.063 65.8873 155.989 66.0508 155.913C69.8731 154.152 73.8426 152.715 77.8222 151.358C78.3871 151.161 78.9473 150.95 79.5081 150.741C81.001 150.194 82.5172 149.731 84.0393 149.274C84.1863 149.23 84.3337 149.185 84.4851 149.14C86.6839 148.478 88.8924 147.87 91.1265 147.339C92.397 147.035 93.6481 146.685 94.8982 146.307C96.8216 145.729 98.7595 145.268 100.721 144.841C101.073 144.763 101.427 144.687 101.778 144.609C105.224 143.853 108.68 143.155 112.141 142.477C112.839 142.34 113.537 142.2 114.235 142.059C117.213 141.466 120.212 140.99 123.211 140.518C123.388 140.49 123.566 140.463 123.748 140.434C124.08 140.381 124.412 140.329 124.744 140.278C125.669 140.13 126.566 139.931 127.472 139.696C128.67 139.404 129.901 139.25 131.12 139.065C131.62 138.989 132.121 138.91 132.621 138.831C134.308 138.569 135.939 138.386 137.651 138.45C137.961 139.494 138.211 140.522 138.406 141.596C138.46 141.89 138.514 142.185 138.569 142.488C138.611 142.719 138.613 142.721 138.655 142.957C139.083 145.316 139.527 147.669 140.03 150.013C140.607 152.722 141.076 155.448 141.549 158.177C141.577 158.338 141.604 158.499 141.632 158.664C141.66 158.824 141.687 158.983 141.715 159.147C142.301 162.51 142.966 165.858 143.643 169.203C143.759 169.776 143.874 170.352 143.989 170.925C144.024 171.096 144.061 171.266 144.097 171.443C144.303 172.467 144.491 173.494 144.668 174.523C145.092 176.974 145.577 179.411 146.07 181.849C146.234 182.66 146.398 183.471 146.561 184.283C146.599 184.467 146.635 184.653 146.674 184.843C146.932 186.13 146.934 186.13 146.934 186.636C147.295 186.658 147.656 186.68 148.016 186.703C148.339 186.723 148.662 186.744 148.985 186.765C149.841 186.819 150.698 186.871 151.554 186.916C159.215 187.324 159.215 187.325 162.163 189.021C162.965 189.466 163.784 189.87 164.606 190.277C164.946 190.445 165.286 190.615 165.626 190.784C165.797 190.868 165.968 190.952 166.144 191.039C167.118 191.524 168.087 192.016 169.057 192.508C170.016 192.995 170.979 193.475 171.943 193.95C172.401 194.178 172.857 194.412 173.312 194.646C173.769 194.878 174.231 195.103 174.7 195.309C175.482 195.692 175.824 195.983 176.182 196.794C176.416 197.565 176.593 198.333 176.759 199.122C176.887 199.677 177.016 200.231 177.145 200.786C177.205 201.05 177.267 201.316 177.328 201.589C177.59 202.718 177.922 203.821 178.26 204.931C178.402 205.5 178.402 205.501 178.402 206.41C178.556 206.436 178.71 206.46 178.869 206.486C179.648 206.663 180.368 206.939 181.108 207.235C181.34 207.327 181.341 207.328 181.578 207.421C181.913 207.554 182.249 207.687 182.584 207.82C183.499 208.183 184.416 208.544 185.333 208.903C185.525 208.979 185.716 209.055 185.913 209.133C187.846 209.889 189.791 210.612 191.736 211.337C194.826 212.489 197.89 213.682 200.93 214.965C202.94 215.812 204.964 216.617 206.997 217.404C207.138 217.459 207.28 217.515 207.426 217.571C208.685 218.058 209.945 218.545 211.209 219.016C213.498 219.87 215.761 220.778 218.019 221.711C219.847 222.465 221.681 223.195 223.533 223.886C224.785 224.354 226.025 224.849 227.259 225.36C227.468 225.445 227.675 225.532 227.89 225.619C228.923 226.042 229.944 226.479 230.953 226.956C232.813 227.825 234.218 228.433 236.303 228.118C237.687 227.915 239.092 227.97 240.488 227.975C240.763 227.974 241.039 227.973 241.323 227.972H242.814C243.374 228.001 243.374 228.004 243.829 228.231V169.815C243.379 169.965 242.931 170.116 242.47 170.27C241.928 170.329 241.928 170.329 241.395 170.332C241.192 170.334 240.989 170.338 240.779 170.34C240.56 170.34 240.338 170.34 240.112 170.34C239.879 170.342 239.644 170.344 239.404 170.346C238.631 170.351 237.858 170.352 237.085 170.354C236.545 170.356 236.006 170.36 235.466 170.362C234.335 170.366 233.203 170.367 232.07 170.367C230.625 170.368 229.179 170.376 227.734 170.386C226.62 170.393 225.505 170.397 224.39 170.397C223.858 170.398 223.325 170.4 222.792 170.405C218.254 170.442 215.646 169.86 212.301 166.589C211.163 165.378 210.323 164.06 209.644 162.543C209.532 162.302 209.532 162.301 209.418 162.055C208.637 160.176 208.606 158.372 208.618 156.371C208.618 156.02 208.617 155.668 208.616 155.317C208.614 154.585 208.614 153.852 208.618 153.121C208.623 152.191 208.621 151.261 208.616 150.331C208.612 149.607 208.613 148.88 208.616 148.156C208.616 147.814 208.615 147.471 208.613 147.129C208.592 142.84 209.939 139.159 212.812 135.949C212.998 135.74 213.185 135.531 213.378 135.316C215.319 133.256 218.114 130.958 221.053 130.669C221.476 130.666 221.898 130.689 222.32 130.721V130.268H96.6753V137.313C93.9588 137.995 93.9586 137.996 92.7532 138.297C87.651 139.589 82.7133 141.284 77.7873 143.127C76.6202 143.562 75.4471 143.973 74.2627 144.358C73.9888 140.953 74.9541 137.589 76.5256 134.586C76.6197 134.387 76.7159 134.189 76.8128 133.984C79.6662 128.255 85.4683 124.431 91.3708 122.454C93.0439 121.901 94.5162 121.596 96.2914 121.603H100.117C101.346 121.603 102.576 121.604 103.805 121.605C105.09 121.607 106.376 121.608 107.66 121.608C110.094 121.609 112.529 121.611 114.962 121.613C117.732 121.616 120.503 121.618 123.273 121.619C128.972 121.621 134.67 121.625 140.368 121.63V112.31C138.962 112.317 138.96 112.318 137.525 112.326C134.421 112.341 131.317 112.351 128.213 112.358C126.331 112.363 124.449 112.369 122.567 112.38C120.926 112.389 119.285 112.394 117.644 112.396C116.776 112.397 115.908 112.4 115.04 112.407C114.221 112.413 113.4 112.416 112.581 112.415C112.142 112.415 111.702 112.418 111.263 112.423C107.068 112.403 103.681 110.699 100.75 107.766C100.557 107.577 100.362 107.388 100.162 107.194C98.7323 105.712 97.7661 104.037 97.1289 102.081C97.0521 101.846 96.9748 101.61 96.8954 101.367C96.6629 100.437 96.6057 99.5726 96.6029 98.6206C96.6006 98.4409 96.5999 98.2614 96.5974 98.0763C96.5904 97.487 96.5851 96.8973 96.5814 96.3081C96.5771 95.8979 96.5724 95.4867 96.5678 95.0763C96.5563 94.0002 96.5468 92.9238 96.5383 91.8475C96.5293 90.7479 96.5175 89.6482 96.5062 88.5487C96.4843 86.3929 96.4672 84.2356 96.4497 82.0801C96.2377 81.9768 96.0243 81.874 95.8056 81.7674C95.5218 81.6275 95.2383 81.4869 94.9545 81.347C94.8157 81.2796 94.6763 81.2115 94.533 81.1423C91.7621 79.769 88.9994 77.6318 87.6205 74.8085C87.54 74.6772 87.4593 74.5447 87.3762 74.4094C87.0805 73.6842 87.1035 73.044 87.0971 72.2613C87.0952 72.0987 87.0936 71.9359 87.0918 71.7682C87.0862 71.2295 87.0851 70.6898 87.0837 70.151C87.0816 69.7756 87.0777 69.4001 87.0756 69.0244C87.0719 68.2359 87.071 67.4466 87.0703 66.6581C87.0689 65.652 87.0618 64.6455 87.0514 63.6394C87.0447 62.8625 87.0435 62.0849 87.0433 61.3081C87.0424 60.9379 87.0373 60.5678 87.0327 60.1977C87.0089 58.1749 87.0057 56.4743 88.2997 54.8045C88.4294 54.6262 88.5581 54.4467 88.6917 54.2628C90.5523 52.1955 92.8667 50.0516 95.5424 49.123C95.9198 49.117 96.2981 49.1163 96.6753 49.123C96.6698 48.9099 96.665 48.6957 96.6592 48.4761C96.6084 46.4575 96.5708 44.4391 96.5464 42.4201C96.5335 41.3817 96.5157 40.3422 96.4873 39.3043C96.4601 38.3009 96.4456 37.2975 96.4391 36.2938C96.4345 35.9128 96.4257 35.5316 96.4123 35.151C96.3501 33.3293 96.3127 31.8476 97.5423 30.4101C98.0591 29.8721 98.6035 29.385 99.1665 28.8953C99.447 28.6088 99.7257 28.3188 100.001 28.0277C100.501 27.5327 101.018 27.0692 101.553 26.6127C102.626 25.6734 103.627 24.667 104.627 23.6507C104.959 23.3127 105.292 22.9739 105.625 22.6371C106.572 21.6813 107.519 20.7248 108.463 19.7667C109.044 19.1776 109.625 18.5888 110.208 18.0014C110.429 17.7779 110.651 17.5546 110.871 17.3303C111.177 17.0187 111.484 16.7078 111.792 16.3977C111.966 16.2209 112.141 16.0435 112.32 15.8614C112.749 15.4843 112.749 15.484 113.201 15.484V15.0285C113.656 14.6104 113.658 14.6105 114.264 14.1337C114.461 13.9773 114.657 13.8206 114.86 13.6594C116.043 12.7834 116.825 12.4298 118.307 12.4465C118.563 12.4454 118.563 12.445 118.825 12.4438C119.399 12.442 119.974 12.4435 120.548 12.4465C120.964 12.4462 121.381 12.4474 121.797 12.4465C122.94 12.445 124.084 12.4458 125.227 12.4492C126.46 12.4522 127.692 12.4524 128.924 12.4519C131.06 12.4516 133.196 12.4535 135.332 12.4573C138.42 12.4629 141.508 12.4645 144.596 12.4654C149.606 12.4669 154.619 12.4724 159.629 12.4789C164.496 12.4851 169.363 12.4895 174.23 12.4924C174.38 12.4925 174.532 12.4923 174.686 12.4924C176.342 12.4933 177.997 12.4941 179.653 12.495C192.139 12.5021 204.628 12.5148 217.115 12.5301C217.02 12.4068 216.925 12.2825 216.827 12.1555C216.704 11.9929 216.581 11.8297 216.454 11.6622C216.271 11.4211 216.269 11.4204 216.081 11.1744C214.995 9.62935 215.082 7.52627 215.303 5.7112C215.89 3.61667 217.44 2.04329 219.278 0.964922ZM122.922 21.2033C120.974 21.178 119.065 20.8815 117.762 22.5994C117.498 23.0227 117.499 23.0237 117.016 23.4241C115.771 24.4773 114.585 25.5882 113.51 26.8174C112.137 28.4298 110.663 29.9647 109.088 31.3804C108.942 31.5057 108.8 31.628 108.659 31.7496C108.367 32.0153 108.068 32.2754 107.768 32.5314C107.192 32.908 106.652 33.2922 106.146 33.7603C104.906 35.1515 104.906 35.1515 104.976 40.272C104.987 41.044 104.989 41.8176 104.986 42.5899C104.981 44.1037 104.986 45.6174 105 47.1313C105.017 48.9088 105.022 50.6874 105.024 52.4651C105.027 55.6326 105.04 58.801 105.062 61.9684C105.083 65.0514 105.101 68.1354 105.107 71.2183C105.108 71.4141 105.107 71.6052 105.107 71.7951C105.109 72.5606 105.111 73.3261 105.113 74.0914C105.119 77.4006 105.129 80.7114 105.142 84.0207C105.144 84.5529 105.146 85.0866 105.148 85.6189C105.154 87.5029 105.162 89.3869 105.174 91.2707C105.18 92.0513 105.185 92.8326 105.188 93.6129C105.19 94.336 105.196 95.0594 105.201 95.7825C105.205 96.1818 105.203 96.1835 105.207 96.5749C105.207 96.8264 105.209 97.072 105.209 97.3161C105.212 97.5461 105.212 97.7694 105.215 97.9927C105.224 99.5249 105.8 100.509 106.825 101.602C108.612 103.354 110.347 103.644 112.774 103.62C113.139 103.617 113.505 103.617 113.87 103.617C114.88 103.623 115.89 103.623 116.9 103.617C118.003 103.612 119.105 103.613 120.208 103.615C122.369 103.62 124.532 103.618 126.693 103.612C129.232 103.605 131.771 103.601 134.309 103.601C138.829 103.602 143.351 103.598 147.871 103.588C152.275 103.578 156.68 103.571 161.084 103.572H162.73C167.763 103.572 172.797 103.57 177.83 103.564C179.606 103.561 181.383 103.561 183.159 103.561C185.343 103.56 187.527 103.559 189.711 103.553C190.825 103.55 191.94 103.545 193.054 103.545C194.088 103.546 195.123 103.546 196.157 103.542C196.532 103.54 196.909 103.538 197.284 103.537C197.804 103.538 198.324 103.54 198.844 103.537C199.003 103.535 199.157 103.535 199.311 103.534C200.073 103.533 200.599 103.614 201.207 103.138C201.82 102.439 201.821 102.438 202.511 101.812C202.641 101.691 202.769 101.573 202.895 101.456C203.543 100.853 204.19 100.249 204.86 99.6689C206.101 98.5998 207.252 97.4562 208.398 96.2865C209.674 94.9848 210.947 93.6884 212.36 92.5349C213.091 92.0342 213.723 91.5487 214.358 90.9284C215.28 89.6118 215.28 89.6118 214.849 84.1258C210.946 83.7267 206.581 80.2271 203.757 77.5359C203.054 76.6474 202.996 75.9191 202.984 74.8273C202.985 74.6146 202.985 74.4083 202.986 74.2019C202.981 73.5028 202.978 72.8015 202.978 72.1024C202.979 71.6028 202.979 71.1035 202.978 70.6038C202.975 69.5606 202.974 68.5153 202.976 67.4721C202.978 66.1157 202.979 64.7586 202.973 63.4022C202.968 62.3441 202.964 61.2854 202.965 60.2273C202.965 59.7224 202.965 59.2174 202.965 58.7125C202.961 57.9861 202.957 57.2586 202.959 56.5322C202.961 56.3059 202.964 56.0861 202.965 55.8665C202.953 54.7557 202.897 53.9547 203.502 52.9988C203.665 52.8406 203.824 52.6859 203.982 52.5325C204.176 52.3447 204.366 52.1622 204.554 51.9799C204.764 51.7913 204.967 51.6079 205.171 51.4247C205.908 50.7618 206.649 50.1026 207.394 49.4492C207.692 49.1902 207.99 48.9289 208.285 48.6674C209.231 47.7912 210.181 46.9268 211.174 46.1043C211.389 45.9377 211.598 45.7756 211.808 45.6139C212.37 45.1549 212.371 45.156 213.04 44.8053C213.732 44.6508 214.405 44.4998 215.077 44.3497V21.3946C203.162 21.3604 191.244 21.3303 179.328 21.3138C177.892 21.3118 176.455 21.3105 175.019 21.3084C174.725 21.308 174.438 21.3061 174.152 21.3057C169.507 21.2989 164.862 21.288 160.217 21.2734C155.436 21.2583 150.655 21.2472 145.874 21.2437C142.927 21.2417 139.978 21.2378 137.031 21.2249C134.993 21.2159 132.954 21.2105 130.916 21.2114C129.74 21.2126 128.562 21.2155 127.386 21.2087C126.295 21.2007 125.204 21.1943 124.113 21.1979C123.716 21.1999 123.318 21.2026 122.922 21.2033Z" fill="#00737A"/>
<path d="M222.322 130.72C222.16 130.735 221.997 130.749 221.83 130.763C217.992 131.237 214.839 133.77 212.36 136.631C210.373 139.222 208.956 142.15 208.921 145.463C208.919 145.616 208.917 145.77 208.915 145.927C208.91 146.429 208.905 146.931 208.902 147.433C208.901 147.606 208.9 147.781 208.899 147.959C208.893 148.876 208.889 149.794 208.886 150.711C208.883 151.464 208.876 152.216 208.867 152.969C208.856 153.884 208.85 154.8 208.848 155.716C208.847 156.061 208.843 156.406 208.837 156.751C208.778 160.716 209.945 163.846 212.69 166.769C215.017 168.966 217.202 170.116 220.397 170.097C220.633 170.098 220.87 170.1 221.114 170.1C221.516 170.1 221.919 170.096 222.322 170.095C222.288 176.728 222.256 183.36 222.225 189.993C222.221 190.796 222.218 191.6 222.214 192.403C222.214 192.568 222.212 192.728 222.211 192.888C222.199 195.485 222.187 198.081 222.174 200.677C222.161 203.198 222.148 205.722 222.136 208.243C222.13 209.744 222.123 211.245 222.115 212.747C222.107 214.184 222.1 215.621 222.093 217.059C222.091 217.587 222.09 218.116 222.088 218.643C222.084 219.383 222.08 220.123 222.077 220.862C222.077 221.088 222.075 221.308 222.075 221.527C222.07 222.192 222.074 222.852 222.091 223.517C221.117 223.144 220.142 222.775 219.165 222.412C217.214 221.682 215.28 220.911 213.35 220.129C213.129 220.039 212.907 219.949 212.679 219.856C212.39 219.739 212.388 219.739 212.094 219.619C211.592 219.42 211.088 219.226 210.582 219.037C209.675 218.697 208.775 218.341 207.876 217.978C207.714 217.912 207.55 217.846 207.382 217.778C206.863 217.569 206.343 217.36 205.823 217.15C202.31 215.73 202.31 215.728 198.771 214.374C198 214.082 197.368 213.766 196.739 213.229H197.192C197.267 185.927 197.341 158.624 197.418 130.494H96.6744V130.268H222.322V130.72Z" fill="#7AC1BD"/>
<path d="M121.942 21.0348C122.339 21.0341 122.736 21.0327 123.132 21.0306C124.222 21.027 125.31 21.0334 126.4 21.0415C127.574 21.0484 128.749 21.0461 129.924 21.0448C131.959 21.044 133.994 21.049 136.029 21.058C138.972 21.071 141.914 21.0752 144.856 21.0772C149.63 21.0807 154.404 21.0914 159.178 21.1065C163.815 21.1212 168.452 21.1326 173.09 21.1394C173.376 21.1398 173.661 21.1402 173.956 21.1407C175.39 21.1428 176.824 21.1448 178.258 21.1468C190.154 21.1634 202.051 21.1929 213.947 21.2274C213.947 28.8532 213.947 36.479 213.947 44.3359C213.276 44.487 212.605 44.638 211.913 44.7935C211.246 45.1466 211.246 45.1466 210.684 45.6086C210.476 45.7714 210.267 45.9342 210.052 46.102C209.06 46.9303 208.111 47.8005 207.167 48.6831C206.871 48.9464 206.574 49.2087 206.277 49.4696C205.533 50.1273 204.794 50.7899 204.059 51.4573C203.855 51.6419 203.651 51.8265 203.441 52.0168C203.253 52.2002 203.066 52.3837 202.872 52.5727C202.714 52.7273 202.555 52.8819 202.392 53.0412C201.788 54.0039 201.843 54.8102 201.855 55.9287C201.854 56.1502 201.852 56.3716 201.851 56.5998C201.848 57.331 201.852 58.062 201.856 58.7931C201.856 59.3017 201.856 59.8103 201.855 60.3189C201.855 61.3844 201.858 62.4499 201.863 63.5154C201.869 64.8811 201.869 66.2466 201.866 67.6123C201.864 68.6624 201.866 69.7125 201.869 70.7626C201.87 71.2661 201.87 71.7697 201.869 72.2732C201.868 72.977 201.872 73.6806 201.877 74.3844C201.876 74.5925 201.875 74.8005 201.874 75.0148C201.887 76.1141 201.945 76.8459 202.646 77.7404C205.467 80.4497 209.824 83.9744 213.721 84.3756C214.152 89.898 214.152 89.898 213.231 91.2234C212.597 91.8482 211.965 92.3366 211.235 92.8411C209.824 94.0024 208.554 95.3058 207.28 96.6162C206.135 97.7937 204.987 98.945 203.748 100.021C203.079 100.605 202.432 101.213 201.785 101.821C201.658 101.939 201.532 102.057 201.402 102.179C200.713 102.809 200.713 102.809 200.1 103.513C199.494 103.993 198.969 103.91 198.208 103.912C198.054 103.913 197.901 103.914 197.742 103.915C197.222 103.919 196.703 103.917 196.184 103.915C195.809 103.916 195.434 103.918 195.06 103.92C194.027 103.924 192.994 103.924 191.962 103.923C190.849 103.923 189.736 103.927 188.624 103.93C186.443 103.936 184.261 103.938 182.08 103.938C180.307 103.938 178.534 103.94 176.761 103.942C171.736 103.948 166.711 103.951 161.686 103.951C161.279 103.951 161.279 103.951 160.864 103.951C160.593 103.951 160.322 103.951 160.042 103.95C155.645 103.95 151.248 103.957 146.851 103.966C142.338 103.976 137.825 103.981 133.311 103.98C130.777 103.98 128.243 103.982 125.708 103.99C123.55 103.996 121.391 103.997 119.233 103.993C118.132 103.99 117.03 103.99 115.929 103.996C114.92 104.002 113.912 104.001 112.903 103.995C112.539 103.994 112.174 103.995 111.81 103.999C109.386 104.022 107.656 103.732 105.872 101.967C104.848 100.867 104.273 99.8775 104.264 98.3348C104.262 98.1094 104.259 97.8839 104.257 97.6516C104.256 97.4056 104.256 97.1596 104.255 96.9061C104.252 96.5121 104.252 96.5121 104.249 96.1101C104.244 95.3819 104.24 94.6537 104.238 93.9255C104.234 93.1397 104.229 92.354 104.223 91.5682C104.211 89.6711 104.204 87.774 104.197 85.8768C104.195 85.3408 104.193 84.8047 104.191 84.2686C104.178 80.9375 104.167 77.6063 104.161 74.2752C104.159 73.5041 104.157 72.7329 104.156 71.9618C104.155 71.7702 104.155 71.5785 104.155 71.3811C104.148 68.2772 104.131 65.1736 104.11 62.0698C104.089 58.8811 104.077 55.6925 104.074 52.5038C104.072 50.7142 104.066 48.9249 104.05 47.1354C104.036 45.6112 104.03 44.0873 104.036 42.563C104.038 41.7857 104.035 41.0095 104.024 40.2322C103.955 35.0766 103.955 35.0766 105.193 33.6761C105.698 33.2046 106.238 32.8178 106.813 32.4385C107.113 32.1807 107.411 31.9195 107.703 31.652C107.844 31.5293 107.986 31.4066 108.132 31.2802C109.704 29.855 111.175 28.3103 112.545 26.6872C113.619 25.4499 114.802 24.3315 116.045 23.2714C116.528 22.8682 116.528 22.8682 116.791 22.4422C118.092 20.7123 119.998 21.0094 121.942 21.0348Z" fill="#FDFDFC"/>
<path d="M120.449 51.5866C120.641 51.5843 120.832 51.582 121.029 51.5794C121.24 51.5778 121.452 51.5764 121.669 51.5748C121.893 51.5725 122.116 51.5699 122.347 51.5674C123.101 51.5595 123.855 51.5535 124.609 51.5473C125.148 51.5422 125.686 51.5368 126.225 51.5317C131.153 51.4856 136.081 51.4602 141.008 51.44C141.669 51.4372 142.329 51.4345 142.989 51.4317C143.235 51.4305 143.235 51.4305 143.486 51.4296C146.138 51.4178 148.789 51.3941 151.441 51.3657C154.166 51.3369 156.892 51.3203 159.617 51.3149C161.146 51.3117 162.675 51.3029 164.204 51.2802C165.645 51.2593 167.085 51.2538 168.526 51.2596C169.053 51.2589 169.58 51.2531 170.106 51.2413C174.491 51.1472 174.491 51.1472 176.302 52.7434C176.847 53.2856 177.352 53.8519 177.846 54.4407C178.303 54.9475 178.831 55.3209 179.389 55.7086C180.917 57.2813 180.503 59.914 180.483 61.9511C180.484 62.453 180.487 62.9547 180.489 63.4564C180.492 64.5059 180.488 65.5549 180.478 66.6042C180.466 67.9458 180.473 69.2864 180.485 70.628C180.493 71.6636 180.49 72.6987 180.485 73.7343C180.484 74.2286 180.485 74.7231 180.49 75.2174C180.523 79.5568 180.523 79.5568 179.237 80.8697C178.892 81.1337 178.538 81.3867 178.175 81.6262C177.851 81.902 177.53 82.1809 177.213 82.4644C177.065 82.5909 176.918 82.7176 176.766 82.848C176.39 83.1929 176.074 83.5436 175.756 83.9417C174.557 85.4053 174.557 85.4053 173.64 85.5756C173.059 85.6124 172.484 85.6189 171.902 85.6164C171.679 85.6189 171.457 85.6214 171.227 85.624C170.48 85.6314 169.733 85.6323 168.986 85.633C168.45 85.637 167.914 85.6411 167.379 85.6458C165.923 85.6567 164.468 85.6615 163.012 85.6648C162.102 85.6666 161.192 85.6701 160.282 85.6738C157.761 85.6838 155.24 85.6921 152.718 85.6944C152.557 85.6946 152.396 85.6946 152.229 85.6949C151.903 85.6951 151.576 85.6953 151.249 85.6958C151.086 85.6958 150.924 85.696 150.757 85.696C150.594 85.6963 150.432 85.6965 150.264 85.6965C147.634 85.699 145.004 85.7132 142.374 85.7324C139.67 85.7519 136.966 85.7618 134.263 85.7625C132.746 85.763 131.23 85.7678 129.713 85.7824C128.285 85.7959 126.858 85.7972 125.43 85.7896C124.907 85.7889 124.384 85.7924 123.862 85.8005C119.503 85.8642 119.503 85.8642 118.065 84.6412C117.538 84.1189 117.071 83.5614 116.598 82.99C116.307 82.7447 116.01 82.5066 115.703 82.2817C114.29 81.1442 113.52 80.1354 113.302 78.297C113.226 77.1477 113.222 76.0042 113.232 74.8528C113.228 74.3509 113.222 73.8492 113.217 73.3475C113.208 72.2994 113.211 71.252 113.221 70.2039C113.233 68.8695 113.214 67.5376 113.186 66.2037C113.168 65.1681 113.169 64.1335 113.175 63.0979C113.175 62.6066 113.169 62.1153 113.158 61.6243C113.075 57.6211 113.075 57.6211 114.488 55.9991C115.28 55.2053 116.13 54.5069 117.021 53.8283C117.654 53.3206 118.209 52.7542 118.767 52.1652C119.313 51.6302 119.713 51.594 120.449 51.5866Z" fill="#00737A"/>
<path d="M119.314 191.863C120.173 191.951 121.033 192.039 121.918 192.13C123.087 192.249 124.257 192.369 125.427 192.488C125.579 192.504 125.731 192.52 125.888 192.536C130.111 192.967 134.333 193.397 138.557 193.817C140.376 193.999 142.194 194.185 144.011 194.378C144.584 194.438 145.158 194.499 145.731 194.559C146.105 194.599 146.48 194.639 146.854 194.679C148.721 194.88 150.581 195.063 152.457 195.139C157.619 195.358 157.619 195.358 159.899 197.05C160.513 197.471 161.169 197.802 161.831 198.141C162.201 198.332 162.568 198.527 162.933 198.728C163.84 199.224 164.708 199.646 165.693 199.962C167.016 200.44 168.2 200.94 168.868 202.263C169.878 204.66 170.439 207.272 170.931 209.82C170.984 210.085 171.038 210.35 171.093 210.624C171.168 211.551 171.008 212.199 170.74 213.088C170.693 213.245 170.647 213.401 170.6 213.562C170.449 214.068 170.294 214.572 170.138 215.076C170.032 215.429 169.925 215.783 169.819 216.136C169.172 218.279 168.493 220.411 167.773 222.53C167.029 224.723 166.329 226.93 165.618 229.134C165.556 229.325 165.494 229.517 165.431 229.714C165.37 229.903 165.309 230.092 165.246 230.286C165.125 230.659 165.004 231.033 164.881 231.406C164.598 232.266 164.328 233.125 164.091 233.998C163.398 236.474 163.398 236.474 162.329 237.162C161.832 237.396 161.832 237.396 161.323 237.593C160.989 237.741 160.654 237.892 160.319 238.042C160.158 238.109 159.997 238.177 159.832 238.244C159.32 238.468 159.32 238.468 158.712 238.997C157.831 239.474 157.493 239.319 156.558 239.085C155.587 238.793 154.667 238.399 153.737 237.998C153.302 237.815 152.867 237.635 152.432 237.452C151.759 237.169 151.088 236.884 150.418 236.597C147.211 235.216 144.292 234.443 140.821 234.139C140.367 234.095 139.913 234.049 139.459 234.003C138.26 233.885 137.059 233.773 135.859 233.667C130.328 233.174 124.825 232.55 119.314 231.867C119.314 229.017 119.314 226.166 119.314 223.23C123.135 223.485 123.135 223.485 124.551 223.643C124.707 223.66 124.862 223.677 125.023 223.694C125.523 223.749 126.022 223.805 126.521 223.861C126.878 223.9 127.234 223.94 127.591 223.979C128.52 224.082 129.45 224.185 130.38 224.289C131.13 224.373 131.881 224.456 132.632 224.539C133.543 224.639 134.454 224.74 135.365 224.841C135.532 224.86 135.7 224.878 135.873 224.898C138.278 225.164 140.682 225.443 143.085 225.73C143.145 225.442 143.205 225.154 143.267 224.857C143.535 223.647 143.883 222.468 144.245 221.284C144.339 220.972 144.339 220.972 144.435 220.654C144.588 220.149 144.742 219.644 144.896 219.139C144.75 219.144 144.604 219.15 144.453 219.156C142.435 219.199 140.483 218.969 138.486 218.718C133.827 218.132 129.159 217.668 124.484 217.232C124.24 217.209 123.996 217.186 123.745 217.163C123.287 217.12 122.83 217.077 122.373 217.036C122.168 217.016 121.964 216.997 121.753 216.978C121.576 216.961 121.399 216.945 121.217 216.928C120.58 216.855 119.947 216.744 119.314 216.638C119.314 213.713 119.314 210.788 119.314 207.774C121.861 207.774 121.861 207.774 123.052 207.892C123.318 207.918 123.584 207.943 123.858 207.97C124.14 207.999 124.421 208.027 124.71 208.056C125.011 208.086 125.312 208.115 125.612 208.145C126.4 208.222 127.188 208.301 127.976 208.38C128.763 208.458 129.55 208.535 130.337 208.613C131.834 208.76 133.33 208.909 134.826 209.059C135.526 209.129 136.226 209.198 136.926 209.266C139.378 209.508 141.826 209.781 144.273 210.075C144.624 210.117 144.974 210.159 145.324 210.2C146.162 210.3 147.001 210.401 147.839 210.501C147.862 210.253 147.885 210.004 147.909 209.748C148.062 208.523 148.409 207.364 148.759 206.183C148.874 205.789 148.989 205.396 149.104 205.002C149.164 204.798 149.224 204.593 149.286 204.382C149.331 204.226 149.377 204.07 149.424 203.91C149 203.894 149 203.894 148.567 203.878C145.519 203.754 142.497 203.496 139.464 203.179C138.98 203.13 138.498 203.08 138.015 203.03C137.012 202.928 136.009 202.824 135.006 202.719C133.729 202.586 132.453 202.455 131.176 202.324C130.182 202.222 129.188 202.12 128.194 202.017C127.723 201.968 127.253 201.92 126.782 201.872C126.123 201.804 125.464 201.735 124.805 201.666C124.616 201.647 124.427 201.628 124.233 201.608C122.584 201.434 120.96 201.191 119.314 200.955C119.314 197.955 119.314 194.955 119.314 191.863Z" fill="#F3F9FB"/>
<path d="M215.945 21.0599C215.945 28.7102 215.945 36.3604 215.945 44.2425C214.897 44.4696 214.897 44.4696 213.828 44.7014C213.134 45.0555 213.134 45.0555 212.549 45.5191C212.332 45.6824 212.115 45.8459 211.891 46.0141C210.858 46.8451 209.871 47.7181 208.888 48.6034C208.58 48.8677 208.271 49.1306 207.962 49.3923C207.188 50.0522 206.419 50.7169 205.653 51.3866C205.441 51.5716 205.229 51.7569 205.01 51.9477C204.815 52.1318 204.619 52.3159 204.418 52.5054C204.253 52.6604 204.088 52.8157 203.918 52.9755C203.29 53.9413 203.347 54.7501 203.359 55.8722C203.358 56.0944 203.357 56.3166 203.355 56.5456C203.353 57.2791 203.356 58.0124 203.361 58.7459C203.361 59.256 203.36 59.7662 203.359 60.2766C203.359 61.3455 203.362 62.4142 203.368 63.4831C203.374 64.8531 203.374 66.2231 203.371 67.593C203.369 68.6465 203.371 69.7 203.374 70.7535C203.375 71.2588 203.375 71.7638 203.374 72.269C203.373 72.9749 203.377 73.6808 203.382 74.387C203.381 74.7 203.381 74.7 203.379 75.0195C203.392 76.1221 203.453 76.8563 204.183 77.7536C207.119 80.4715 211.654 84.0077 215.71 84.41C216.158 89.9502 216.158 89.9502 215.2 91.2797C214.54 91.9066 213.882 92.3966 213.122 92.9025C211.654 94.0676 210.332 95.3751 209.006 96.6899C207.814 97.8711 206.619 99.0261 205.33 100.106C204.634 100.692 203.96 101.302 203.286 101.912C203.089 102.089 203.089 102.089 202.888 102.27C202.167 102.913 202.167 102.913 201.503 103.609C200.999 104.023 200.704 104.003 200.052 103.998C199.835 103.998 199.618 103.998 199.395 103.998C199.162 103.994 198.929 103.991 198.689 103.987C198.33 103.986 198.33 103.986 197.964 103.984C197.199 103.98 196.435 103.972 195.67 103.963C195.152 103.96 194.634 103.957 194.116 103.954C192.845 103.946 191.574 103.935 190.304 103.92C190.25 95.9685 190.208 88.0172 190.184 80.0657C190.181 79.1268 190.178 78.1879 190.175 77.249C190.174 77.0622 190.173 76.8753 190.173 76.6825C190.162 73.6567 190.144 70.6307 190.122 67.605C190.1 64.4997 190.087 61.3946 190.082 58.2893C190.079 56.3734 190.069 54.4577 190.05 52.5418C190.037 51.2278 190.034 49.9137 190.037 48.5996C190.038 47.8416 190.035 47.084 190.023 46.3259C190.012 45.503 190.014 44.6811 190.021 43.8582C190.014 43.6198 190.007 43.3813 190 43.1357C190.022 42.0885 190.078 41.4958 190.825 40.7099C191.418 40.246 192.024 39.832 192.656 39.4222C193.058 39.0496 193.451 38.6669 193.832 38.2747C194.157 37.9542 194.482 37.6345 194.807 37.3152C194.986 37.1398 195.165 36.9644 195.349 36.7836C195.533 36.6035 195.716 36.4231 195.905 36.2376C196.086 36.0592 196.267 35.8807 196.453 35.6968C197.432 34.7376 198.429 33.8179 199.481 32.9352C200.326 32.2145 201.135 31.455 201.948 30.7002C202.931 29.7885 203.915 28.8842 204.94 28.0176C205.66 27.4078 206.341 26.7769 207.006 26.1096C207.568 25.549 208.132 24.9899 208.697 24.4311C208.919 24.2089 208.919 24.2089 209.145 23.9823C209.286 23.8426 209.428 23.7028 209.574 23.5587C209.702 23.4314 209.83 23.3042 209.962 23.173C210.299 22.8963 210.299 22.8963 210.77 22.8963C210.843 22.6973 210.843 22.6973 210.917 22.4945C212.134 20.5518 213.587 21.0599 215.945 21.0599Z" fill="#7AC1BD"/>
<path d="M53.4354 156.406C54.208 156.647 54.9506 156.922 55.6886 157.253C57.4816 158.053 58.9028 158.675 60.9062 158.451C61.3244 159.389 61.5261 160.327 61.7021 161.333C61.7482 161.588 61.7482 161.588 61.7955 161.848C61.8617 162.215 61.9273 162.582 61.9926 162.948C62.0964 163.532 62.2013 164.115 62.307 164.698C62.451 165.495 62.5947 166.291 62.738 167.088C63.0261 168.685 63.3239 170.281 63.6227 171.876C63.6774 172.168 63.7318 172.46 63.7879 172.761C64.0527 174.178 64.3201 175.596 64.5914 177.012C64.7596 177.89 64.9271 178.768 65.0943 179.647C65.1276 179.821 65.161 179.996 65.1952 180.176C65.7336 183.012 66.2172 185.855 66.6783 188.704C67.0578 191.045 67.4909 193.366 67.9954 195.684C68.3465 197.323 68.5909 198.963 68.8082 200.624C69.019 202.186 69.3494 203.692 69.7432 205.217C69.9958 206.254 70.1398 207.305 70.2957 208.36C70.4865 209.609 70.7195 210.85 70.9521 212.092C71.0017 212.36 71.0513 212.627 71.1025 212.903C71.3609 214.293 71.6241 215.683 71.8913 217.072C72.3407 219.41 72.7479 221.753 73.147 224.101C73.6411 226.998 74.1755 229.887 74.7158 232.775C74.7977 233.215 74.8796 233.655 74.9615 234.093C75.2148 235.453 75.4697 236.81 75.7267 238.167C76.324 241.331 76.9005 244.495 77.4182 247.673C77.7167 249.503 78.0268 251.333 78.338 253.163C78.3671 253.334 78.3964 253.505 78.4264 253.681C78.8084 255.926 79.2027 258.166 79.65 260.396C79.8809 261.566 80.0309 262.729 80.149 263.915C79.016 264.484 78.4734 264.704 77.2059 264.371C76.4423 264.063 75.7239 263.695 74.9988 263.305C74.8037 263.213 74.6082 263.122 74.4071 263.027C73.5491 262.56 73.0118 262.205 72.7068 261.249C72.6143 260.565 72.5543 259.882 72.5026 259.192C72.4048 258.219 72.2036 257.262 72.0177 256.301C71.9346 255.861 71.8516 255.421 71.7685 254.981C71.7039 254.64 71.7039 254.64 71.638 254.293C71.4059 253.072 71.1763 251.849 70.9468 250.626C70.9006 250.381 70.8545 250.135 70.807 249.883C70.4141 247.787 70.036 245.686 69.6645 243.587C68.8599 239.043 68.0222 234.505 67.1859 229.969C67.0394 229.173 66.8929 228.378 66.7462 227.582C66.7037 227.351 66.7037 227.351 66.6603 227.116C66.2229 224.742 65.7906 222.367 65.3631 219.991C64.396 214.626 63.3874 209.27 62.3112 203.926C61.8258 201.507 61.3715 199.082 60.9269 196.655C60.6704 195.263 60.4014 193.877 60.1006 192.494C59.8039 191.124 59.5656 189.753 59.3496 188.369C59.0483 186.491 58.7007 184.631 58.3027 182.772C57.9352 181.049 57.6044 179.327 57.3264 177.587C56.9037 174.951 56.426 172.327 55.9399 169.702C55.9002 169.489 55.8607 169.275 55.8199 169.055C55.3216 166.371 54.8025 163.693 54.2329 161.023C53.9076 159.491 53.6379 157.96 53.4354 156.406Z" fill="#12B690"/>
<path d="M157.121 195.727C161.05 197.671 161.05 197.671 162.932 198.716C163.84 199.218 164.704 199.645 165.693 199.962C167.016 200.44 168.2 200.939 168.868 202.262C169.878 204.66 170.439 207.271 170.931 209.819C170.984 210.084 171.038 210.35 171.093 210.623C171.169 211.551 171.008 212.199 170.74 213.088C170.693 213.244 170.647 213.401 170.6 213.561C170.449 214.067 170.294 214.571 170.138 215.075C170.032 215.429 169.925 215.782 169.819 216.136C169.172 218.279 168.494 220.411 167.773 222.53C167.029 224.723 166.329 226.93 165.618 229.134C165.556 229.325 165.494 229.516 165.431 229.714C165.34 229.997 165.34 229.997 165.246 230.286C165.126 230.659 165.004 231.032 164.881 231.405C164.598 232.265 164.328 233.125 164.091 233.998C163.398 236.474 163.398 236.474 162.329 237.16C161.832 237.396 161.832 237.396 161.323 237.591C160.989 237.741 160.654 237.892 160.32 238.042C160.158 238.109 159.997 238.177 159.832 238.244C159.32 238.468 159.32 238.468 158.712 238.994C157.831 239.474 157.495 239.318 156.561 239.085C155.574 238.788 154.636 238.394 153.689 237.989C153.248 237.806 152.807 237.623 152.366 237.44C151.681 237.155 150.998 236.868 150.316 236.578C147.601 235.429 145.146 234.501 142.179 234.366C142.179 234.292 142.179 234.216 142.179 234.139C143.346 234.118 144.425 234.174 145.575 234.366C145.605 234.139 145.634 233.91 145.665 233.676C146.008 231.279 146.741 228.963 147.524 226.681C147.954 225.416 148.329 224.142 148.685 222.855C149.357 220.464 150.1 218.101 150.861 215.738C152.248 211.432 153.587 207.116 154.857 202.773C154.982 202.349 155.106 201.926 155.231 201.502C155.485 200.638 155.738 199.774 155.989 198.909C156.139 198.909 156.288 198.909 156.442 198.909C156.453 198.775 156.464 198.64 156.476 198.502C156.492 198.322 156.509 198.142 156.527 197.957C156.542 197.781 156.558 197.604 156.575 197.422C156.677 196.81 156.874 196.295 157.121 195.727Z" fill="#7AC1BD"/>
<path d="M246.922 135.566C247.746 136.257 248.533 136.975 249.262 137.767C249.262 137.917 249.262 138.067 249.262 138.222C249.409 138.222 249.559 138.222 249.714 138.222C251.774 141.481 253.087 145 252.342 148.92C251.714 151.596 250.505 154.193 248.581 156.178C248.431 156.178 248.284 156.178 248.129 156.178C248.016 156.515 248.016 156.516 247.903 156.86C244.627 159.614 241.316 160.546 237.106 160.317C235.934 160.209 234.926 159.859 233.867 159.36C233.662 159.269 233.456 159.178 233.244 159.084C229.723 157.354 227.357 154.334 225.943 150.723C225.643 149.463 225.666 148.219 225.66 146.93C225.655 146.694 225.651 146.458 225.646 146.215C225.632 143.388 226.557 141.313 227.98 138.904C228.08 138.735 228.179 138.566 228.282 138.391C229.937 135.906 233.156 133.902 235.989 133.136C239.623 132.507 243.965 133.237 246.922 135.566Z" fill="#7AC1BD"/>
<path d="M248.108 240.349C248.666 240.84 249.211 241.32 249.714 241.869C249.714 242.017 249.714 242.167 249.714 242.323C249.864 242.323 250.011 242.323 250.166 242.323C250.424 242.814 250.678 243.307 250.93 243.8C251.001 243.937 251.075 244.074 251.149 244.213C251.989 245.866 252.282 247.407 252.261 249.255C252.263 249.496 252.263 249.496 252.265 249.741C252.256 252.639 251.147 255.173 249.262 257.323C249.137 257.466 249.013 257.61 248.886 257.758C246.929 259.87 244.292 261.126 241.434 261.242C239.284 261.288 237.397 261.306 235.452 260.278C235.221 260.162 234.991 260.046 234.755 259.928C233.253 259.118 232.137 258.265 231.149 256.869C230.969 256.618 230.969 256.618 230.785 256.361C229.06 253.735 228.486 250.645 228.886 247.55C229.638 244.194 231.488 241.507 234.319 239.594C238.756 236.947 243.995 237.058 248.108 240.349Z" fill="#7AC1BD"/>
<path d="M225.108 53.8399C226.387 54.8919 228.08 56.3472 228.266 58.0862C228.267 58.2919 228.268 58.4978 228.269 58.71C228.271 58.9444 228.273 59.1788 228.275 59.4206C228.275 59.6729 228.275 59.9253 228.275 60.1854C228.276 60.4467 228.277 60.7078 228.278 60.9769C228.279 61.53 228.279 62.0831 228.278 62.6363C228.278 63.4784 228.283 64.3202 228.289 65.1623C228.289 65.7004 228.289 66.2387 228.289 66.7768C228.291 67.0269 228.293 67.2771 228.295 67.5346C228.28 70.1786 227.602 72.0152 225.717 73.8985C224.925 74.5139 224.108 75.0163 223.226 75.4895C223.086 75.5715 222.945 75.6535 222.8 75.7381C221.181 76.5254 218.832 76.5214 217.11 76.0452C215.01 75.2771 213.36 73.9553 212.284 71.9816C211.743 70.8126 211.43 69.7626 211.411 68.4695C211.407 68.2494 211.403 68.0292 211.399 67.8024C211.389 66.7951 211.38 65.788 211.375 64.7806C211.371 64.2511 211.365 63.7216 211.356 63.1922C211.344 62.4253 211.339 61.6583 211.336 60.8912C211.33 60.6573 211.325 60.4231 211.32 60.1822C211.326 58.0061 212.074 56.2923 213.619 54.749C216.952 51.5676 221.315 51.1669 225.108 53.8399Z" fill="#12B690"/>
<path d="M14.9494 120.039C15.9715 120.43 16.9491 120.9 17.9349 121.374C18.9716 121.869 20.0018 122.358 21.076 122.766C22.1356 123.179 23.1403 123.685 24.1524 124.2C25.6905 124.981 27.2401 125.738 28.7918 126.491C29.2569 126.717 29.7215 126.943 30.1864 127.169C31.4926 127.805 32.7989 128.438 34.1217 129.038C39.9128 131.678 45.6646 135.16 50.266 139.586C50.5892 139.877 50.9145 140.166 51.2423 140.452C51.3835 140.576 51.5247 140.7 51.6703 140.827C51.939 141.058 52.2103 141.287 52.4837 141.512C53.5196 142.373 54.3935 143.316 55.2464 144.359C55.3527 144.486 55.4589 144.613 55.5684 144.743C57.352 146.992 60.0884 150.682 59.7741 153.678C58.771 153.564 58.3154 153.238 57.5952 152.541C56.6054 151.611 55.586 150.741 54.5319 149.885C53.8677 149.343 53.2127 148.791 52.558 148.237C49.058 145.317 45.3654 142.901 41.4322 140.61C40.5027 140.068 39.5951 139.503 38.6919 138.918C36.7446 137.706 34.6549 136.772 32.5809 135.801C31.7866 135.428 30.9948 135.05 30.2032 134.672C29.6706 134.418 29.1369 134.165 28.6033 133.912C28.0074 133.63 27.4136 133.345 26.8207 133.057C23.9778 131.688 21.0439 130.535 18.1188 129.358C17.8816 129.262 17.6443 129.166 17.3999 129.068C16.131 128.556 14.8614 128.047 13.5911 127.539C14.0263 125.036 14.4774 122.536 14.9494 120.039Z" fill="#7AC1BD"/>
<path d="M119.314 191.863C120.173 191.951 121.033 192.039 121.918 192.13C123.087 192.249 124.257 192.369 125.427 192.488C125.579 192.504 125.731 192.52 125.888 192.536C129.931 192.949 133.974 193.36 138.017 193.764C140.055 193.967 142.093 194.173 144.13 194.386C144.33 194.407 144.53 194.427 144.736 194.449C145.691 194.548 146.645 194.648 147.6 194.749C149.64 194.962 151.678 195.142 153.725 195.273C153.725 195.348 153.725 195.423 153.725 195.5C153.202 195.5 152.679 195.5 152.14 195.5C152.056 195.913 152.056 195.913 151.971 196.334C151.652 197.77 151.216 199.167 150.782 200.572C150.661 200.969 150.661 200.969 150.538 201.375C150.46 201.629 150.382 201.883 150.301 202.146C150.195 202.49 150.195 202.49 150.087 202.842C149.902 203.38 149.692 203.865 149.424 204.364C149.424 204.215 149.424 204.064 149.424 203.91C149 203.894 149 203.894 148.567 203.878C145.519 203.754 142.497 203.496 139.464 203.179C138.98 203.13 138.498 203.08 138.015 203.03C137.012 202.928 136.009 202.824 135.006 202.719C133.729 202.586 132.453 202.455 131.176 202.324C130.182 202.222 129.188 202.12 128.194 202.017C127.723 201.968 127.253 201.92 126.782 201.872C126.123 201.804 125.464 201.735 124.805 201.666C124.616 201.647 124.427 201.628 124.233 201.608C122.584 201.434 120.96 201.191 119.314 200.955C119.314 197.955 119.314 194.955 119.314 191.863Z" fill="#EBF7FA"/>
<path d="M119.314 207.773C121.861 207.773 121.861 207.773 123.052 207.891C123.318 207.917 123.584 207.943 123.858 207.97C124.14 207.998 124.421 208.026 124.71 208.056C125.011 208.085 125.312 208.115 125.612 208.144C126.4 208.222 127.188 208.3 127.976 208.379C128.763 208.458 129.55 208.535 130.337 208.612C131.834 208.76 133.329 208.909 134.826 209.058C135.527 209.128 136.228 209.197 136.93 209.266C139.344 209.503 141.753 209.776 144.16 210.075C144.5 210.117 144.839 210.158 145.178 210.2C145.99 210.3 146.801 210.4 147.613 210.501C147.464 211.518 147.228 212.474 146.934 213.457C146.891 213.605 146.847 213.752 146.802 213.904C146.709 214.213 146.617 214.522 146.524 214.831C146.382 215.302 146.242 215.774 146.102 216.246C146.012 216.548 145.921 216.849 145.831 217.151C145.749 217.423 145.668 217.695 145.584 217.976C145.392 218.552 145.186 219.062 144.896 219.593C144.896 219.443 144.896 219.293 144.896 219.138C144.75 219.144 144.604 219.15 144.453 219.155C142.435 219.198 140.483 218.969 138.486 218.717C133.827 218.132 129.159 217.668 124.484 217.232C124.24 217.209 123.996 217.186 123.745 217.162C123.287 217.119 122.83 217.077 122.373 217.035C122.066 217.006 122.066 217.006 121.753 216.977C121.576 216.961 121.399 216.945 121.217 216.928C120.58 216.854 119.947 216.744 119.314 216.638C119.314 213.712 119.314 210.787 119.314 207.773Z" fill="#ECF6F9"/>
<path d="M9.28973 188.909C14.9245 188.866 20.5394 188.944 26.1699 189.136C26.3298 189.141 26.4896 189.147 26.6544 189.152C28.6389 189.22 30.6233 189.291 32.6076 189.363C32.6076 192.363 32.6076 195.364 32.6076 198.455C28.0079 198.455 28.0079 198.455 26.2608 198.348C23.2667 198.187 20.2709 198.15 17.2733 198.102C16.5414 198.09 15.8095 198.077 15.0776 198.064C14.8613 198.061 14.645 198.058 14.4221 198.055C12.6991 198.024 11.0165 197.897 9.28973 197.773C9.28973 194.848 9.28973 191.922 9.28973 188.909Z" fill="#D9EDF8"/>
<path d="M9.51613 204.591C17.217 204.566 24.9086 204.663 32.6076 204.819C32.6076 207.819 32.6076 210.819 32.6076 213.91C27.6109 213.946 22.6472 213.825 17.6567 213.594C16.5694 213.545 15.482 213.497 14.3946 213.449C12.7683 213.377 11.1423 213.303 9.51613 213.229C9.51613 210.378 9.51613 207.528 9.51613 204.591Z" fill="#DCEEF8"/>
<path d="M9.28973 219.82C11.9187 219.807 14.5436 219.846 17.1717 219.912C17.5688 219.921 17.9659 219.931 18.363 219.941C19.1873 219.961 20.0117 219.981 20.836 220.002C21.8894 220.028 22.9429 220.053 23.9962 220.078C24.8131 220.098 25.6298 220.118 26.4463 220.139C26.835 220.148 27.2235 220.158 27.612 220.167C28.1542 220.179 28.6961 220.193 29.238 220.207C29.396 220.211 29.5538 220.214 29.7167 220.218C30.7085 220.245 31.614 220.36 32.6076 220.502C32.6076 223.427 32.6076 226.353 32.6076 229.367C28.8728 229.206 28.8728 229.206 27.254 229.135C26.1588 229.088 25.0634 229.04 23.9683 228.993C23.6114 228.978 23.2545 228.962 22.8978 228.947C22.6353 228.936 22.6353 228.936 22.3676 228.924C21.0142 228.866 19.6609 228.804 18.3077 228.743C17.4046 228.702 16.5015 228.667 15.5979 228.639C15.4048 228.631 15.2118 228.624 15.0128 228.617C14.5378 228.599 14.0627 228.584 13.5875 228.57C12.9119 228.457 12.9119 228.457 12.479 228.096C12.2186 227.69 12.2186 227.69 12.0223 227.2C11.7017 226.458 11.2359 225.922 10.7188 225.304C10.5452 225.093 10.3715 224.883 10.1926 224.666C9.7546 224.139 9.7546 224.139 9.28973 223.684C9.25686 223.023 9.24754 222.384 9.26143 221.724C9.26348 221.542 9.26551 221.359 9.26761 221.171C9.27296 220.721 9.28108 220.271 9.28973 219.82Z" fill="#D3ECF6"/>
<path d="M162.079 61.4959C162.249 61.4945 162.42 61.4931 162.595 61.4915C162.955 61.4899 163.314 61.4906 163.674 61.4936C164.221 61.4966 164.767 61.489 165.313 61.4804C165.664 61.4802 166.015 61.4806 166.366 61.4816C166.527 61.4786 166.689 61.4755 166.856 61.4725C168.119 61.4957 168.904 61.9096 169.799 62.7611C170.268 63.468 170.311 63.6452 170.328 64.4512C170.333 64.6546 170.338 64.8582 170.343 65.0676C170.347 65.3969 170.347 65.3969 170.351 65.7328C170.355 65.9596 170.358 66.1863 170.361 66.42C170.366 66.9004 170.37 67.381 170.373 67.8616C170.379 68.5931 170.396 69.3239 170.413 70.0554C170.417 70.5228 170.42 70.9902 170.422 71.4576C170.429 71.6749 170.436 71.8921 170.443 72.1159C170.433 73.5781 170.092 74.3135 169.074 75.3605C168.143 76.1749 167.462 76.2439 166.277 76.2476C166.11 76.2492 165.943 76.2508 165.771 76.2522C165.417 76.2545 165.063 76.2557 164.71 76.2555C164.171 76.2566 163.632 76.2647 163.093 76.2735C162.749 76.2747 162.405 76.2756 162.061 76.2761C161.9 76.2793 161.74 76.2826 161.575 76.286C160.794 76.2789 160.327 76.1939 159.656 75.7813C158.434 74.5069 158.378 73.5332 158.389 71.8252C158.389 71.6031 158.388 71.3809 158.387 71.1519C158.387 70.6831 158.388 70.214 158.391 69.745C158.394 69.029 158.391 68.3135 158.386 67.5976C158.387 67.1413 158.388 66.6848 158.389 66.2282C158.388 66.0151 158.386 65.8018 158.385 65.5822C158.401 64.0924 158.608 63.1235 159.655 62.002C160.467 61.5198 161.161 61.4894 162.079 61.4959Z" fill="#12B690"/>
<path d="M129.138 61.3537C129.457 61.3437 129.777 61.3347 130.096 61.3261C130.384 61.3176 130.671 61.309 130.968 61.3004C131.924 61.4165 132.377 61.7062 133.124 62.3064C133.363 62.4738 133.363 62.4738 133.607 62.645C134.278 63.5506 134.172 64.4767 134.174 65.5771C134.176 65.8087 134.178 66.0401 134.181 66.2787C134.185 66.7686 134.186 67.2585 134.185 67.7484C134.185 68.4944 134.199 69.2396 134.213 69.9854C134.215 70.4621 134.216 70.939 134.216 71.4157C134.221 71.6371 134.227 71.8585 134.232 72.0867C134.213 73.5586 133.878 74.3077 132.851 75.3616C131.615 76.4405 130.341 76.2557 128.79 76.2554C128.303 76.2564 127.816 76.2645 127.328 76.2733C127.016 76.2747 126.704 76.2754 126.392 76.2758C126.109 76.2777 125.826 76.2795 125.535 76.2816C124.312 76.11 123.668 75.5759 122.859 74.6653C122.352 73.6288 122.353 72.7656 122.363 71.6253C122.363 71.4085 122.362 71.1917 122.361 70.9682C122.36 70.5112 122.362 70.0544 122.366 69.5974C122.37 68.9 122.366 68.203 122.36 67.5056C122.361 67.0604 122.362 66.6153 122.363 66.1703C122.361 65.9628 122.36 65.7552 122.358 65.5417C122.381 63.9738 122.798 63.136 123.908 62.0043C124.695 61.5163 125.255 61.4873 126.177 61.454C126.333 61.448 126.49 61.4422 126.651 61.4359C126.981 61.4248 127.311 61.4158 127.641 61.4088C128.14 61.3972 128.639 61.3759 129.138 61.3537Z" fill="#12B690"/>
<path d="M170.704 160.952C175.635 160.952 180.566 160.952 185.646 160.952C185.646 163.352 185.646 165.752 185.646 168.225C180.715 168.225 175.784 168.225 170.704 168.225C170.704 165.825 170.704 163.424 170.704 160.952Z" fill="#00737A"/>
<path d="M221.303 56.8727C222.555 57.5771 223.462 58.2868 224.132 59.5788C224.289 60.2892 224.296 60.975 224.29 61.7009C224.292 61.9006 224.293 62.1005 224.295 62.3062C224.297 62.7268 224.296 63.1474 224.292 63.5681C224.287 64.2069 224.296 64.8445 224.306 65.4831C224.324 69.1583 224.324 69.1583 223.162 70.6041C222.187 71.4563 221.088 71.8838 219.802 71.9663C218.616 71.8127 217.793 71.4813 217.024 70.5682C216.199 69.3355 216.046 68.3745 216.074 66.9074C216.074 66.7012 216.074 66.4951 216.074 66.2829C216.075 65.85 216.079 65.4171 216.085 64.9842C216.095 64.3239 216.095 63.664 216.093 63.0034C216.096 62.5811 216.099 62.1586 216.102 61.7364C216.102 61.5404 216.102 61.3442 216.102 61.1423C216.128 59.8067 216.342 58.8087 217.277 57.7916C217.409 57.683 217.543 57.5743 217.68 57.4622C217.813 57.3506 217.946 57.2389 218.083 57.1241C219.083 56.4236 220.201 56.3893 221.303 56.8727Z" fill="#00737A"/>
<path d="M170.931 146.859C175.787 146.859 180.643 146.859 185.646 146.859C185.646 149.184 185.646 151.51 185.646 153.905C180.79 153.905 175.934 153.905 170.931 153.905C170.931 151.58 170.931 149.255 170.931 146.859Z" fill="#00737A"/>
<path d="M145.802 194.818C148.446 194.936 151.086 195.063 153.725 195.272C153.725 195.347 153.725 195.422 153.725 195.5C153.202 195.5 152.679 195.5 152.14 195.5C152.084 195.775 152.028 196.05 151.971 196.333C151.652 197.769 151.216 199.167 150.782 200.571C150.702 200.836 150.621 201.101 150.538 201.374C150.46 201.629 150.382 201.883 150.301 202.145C150.23 202.375 150.16 202.605 150.087 202.842C149.902 203.38 149.692 203.864 149.424 204.364C149.424 204.214 149.424 204.064 149.424 203.909C149.224 203.901 149.224 203.901 149.02 203.892C148.404 203.865 147.789 203.838 147.174 203.81C146.86 203.797 146.86 203.797 146.539 203.783C145.228 203.723 143.935 203.615 142.632 203.455C143.08 203.342 143.08 203.342 143.538 203.228C143.559 202.985 143.58 202.742 143.602 202.491C143.768 201.168 144.162 199.914 144.542 198.639C144.613 198.397 144.684 198.154 144.757 197.904C145.066 196.855 145.384 195.83 145.802 194.818Z" fill="#7AC1BD"/>
<path d="M142.179 210.047C142.838 210.061 143.489 210.091 144.146 210.132C144.419 210.147 144.419 210.147 144.698 210.162C145.683 210.22 146.641 210.315 147.613 210.501C147.464 211.518 147.228 212.474 146.934 213.458C146.891 213.605 146.847 213.752 146.802 213.904C146.709 214.213 146.617 214.522 146.524 214.831C146.382 215.303 146.242 215.775 146.102 216.247C146.012 216.548 145.921 216.85 145.831 217.151C145.749 217.423 145.668 217.696 145.584 217.976C145.392 218.552 145.186 219.062 144.896 219.593C144.896 219.443 144.896 219.293 144.896 219.138C144.739 219.144 144.583 219.149 144.421 219.154C142.499 219.19 140.679 218.975 138.784 218.684C138.784 218.609 138.784 218.534 138.784 218.456C139.232 218.456 139.68 218.456 140.142 218.456C140.163 218.185 140.184 217.913 140.206 217.632C140.372 216.129 140.774 214.688 141.161 213.229C141.233 212.947 141.306 212.665 141.381 212.375C141.922 210.305 141.922 210.305 142.179 210.047Z" fill="#7AC1BD"/>
<path d="M96.6753 58.2147C96.6753 63.0151 96.6753 67.8155 96.6753 72.7614C95.3172 71.8523 95.3172 71.8523 94.8643 71.1704C94.8053 70.6921 94.8053 70.6921 94.802 70.1341C94.8 69.9245 94.7979 69.7151 94.7956 69.4994C94.7958 69.2736 94.796 69.0475 94.7963 68.815C94.7954 68.582 94.7942 68.3492 94.7933 68.109C94.7919 67.6159 94.7919 67.1227 94.7928 66.6296C94.7935 65.8768 94.7882 65.1243 94.7824 64.3715C94.782 63.8923 94.782 63.4131 94.7822 62.9338C94.7799 62.7092 94.7778 62.4847 94.7757 62.2533C94.7859 60.7436 94.9917 59.743 96.0245 58.5842C96.449 58.2147 96.449 58.2147 96.6753 58.2147Z" fill="#12B690"/>
<path d="M0.00785139 128.676C0.687175 128.998 1.36628 129.32 2.04534 129.642C2.23532 129.732 2.4253 129.822 2.62105 129.915C3.79518 130.472 4.96078 131.043 6.12033 131.631C5.45847 132.377 4.81756 132.531 3.85644 132.767C3.85644 132.392 3.85644 132.017 3.85644 131.631C3.651 131.814 3.44556 131.996 3.23389 132.185C2.70117 132.633 2.3013 132.913 1.59257 132.995C1.51786 133.37 1.44315 133.745 1.36618 134.131C0.59536 133.357 0.408625 132.681 0.333285 131.602C0.283933 130.79 0.283933 130.79 0.00785139 130.04C-0.00120232 129.585 -0.00198924 129.13 0.00785139 128.676Z" fill="#00737A"/>
</svg>
