<svg width="97" height="112" viewBox="0 0 97 112" fill="none" xmlns="http://www.w3.org/2000/svg">
<path d="M6.40428 0.226088C6.65849 0.224986 6.91271 0.223885 7.17462 0.222751C8.02778 0.21967 8.88091 0.220072 9.73408 0.220473C10.3453 0.219019 10.9565 0.217365 11.5677 0.215526C13.0566 0.211674 14.5456 0.210153 16.0345 0.209882C17.2455 0.20965 18.4565 0.208651 19.6674 0.207111C23.1031 0.20283 26.5387 0.200588 29.9744 0.200952C30.1596 0.200972 30.3447 0.200991 30.5355 0.201011C30.8136 0.201041 30.8136 0.201041 31.0974 0.201071C34.0996 0.201269 37.1018 0.196622 40.104 0.189764C43.189 0.182774 46.274 0.179426 49.359 0.179845C51.09 0.180007 52.821 0.178683 54.5521 0.17344C56.1811 0.168538 57.81 0.1687 59.4389 0.172233C60.0359 0.172741 60.6328 0.171597 61.2297 0.168655C62.0467 0.164891 62.8634 0.167168 63.6804 0.170906C64.032 0.167156 64.032 0.167156 64.3907 0.16333C69.5927 0.215675 72.8275 4.21793 76.2192 7.6353C76.6526 8.06936 77.086 8.50329 77.5196 8.93707C78.4244 9.84297 79.3281 10.75 80.2306 11.6581C81.3841 12.8185 82.5398 13.9767 83.6962 15.1342C84.8046 16.2439 85.9119 17.3547 87.0191 18.4655C87.2285 18.6754 87.4379 18.8853 87.6536 19.1015C88.2496 19.6991 88.8448 20.2976 89.4397 20.8964C89.6135 21.0704 89.7873 21.2444 89.9663 21.4237C90.9209 22.3864 91.8357 23.3716 92.7198 24.3994C93.0973 24.8359 93.4842 25.2623 93.8735 25.6882C95.2196 27.2642 96.0752 29.2485 96.0771 31.3299C96.0785 31.6026 96.0799 31.8752 96.0814 32.156C96.0804 32.4531 96.0795 32.7501 96.0786 33.0561C96.0795 33.3736 96.0804 33.691 96.0814 34.0181C96.0839 34.8978 96.0834 35.7774 96.0823 36.6571C96.0817 37.6064 96.0839 38.5557 96.0857 39.505C96.0888 41.3642 96.0893 43.2235 96.0887 45.0827C96.0883 46.594 96.0887 48.1052 96.0897 49.6165C96.0899 49.8316 96.09 50.0467 96.0902 50.2683C96.0905 50.7052 96.0907 51.1422 96.091 51.5791C96.0937 55.677 96.0932 59.7749 96.0917 63.8728C96.0904 67.6212 96.0932 71.3696 96.0978 75.118C96.1025 78.9673 96.1045 82.8166 96.1036 86.6659C96.1031 88.8268 96.1037 90.9877 96.1072 93.1487C96.1101 94.9883 96.1104 96.828 96.1074 98.6676C96.106 99.6061 96.1058 100.544 96.1087 101.483C96.1118 102.501 96.1093 103.518 96.1062 104.536C96.108 104.832 96.1097 105.128 96.1116 105.433C96.1002 107.22 96.0162 108.763 94.8409 110.202C94.682 110.333 94.5232 110.464 94.3595 110.599C94.2026 110.733 94.0456 110.868 93.8839 111.007C92.7593 111.736 91.6615 111.905 90.3408 111.907C89.8802 111.91 89.8802 111.91 89.4104 111.913C89.0715 111.912 88.7327 111.911 88.3938 111.911C88.0324 111.912 87.671 111.913 87.3096 111.915C86.3172 111.918 85.3249 111.919 84.3326 111.918C83.262 111.919 82.1914 111.922 81.1208 111.925C78.7804 111.93 76.4399 111.932 74.0994 111.933C72.6378 111.934 71.1762 111.936 69.7145 111.938C65.667 111.942 61.6194 111.946 57.5718 111.947C57.1834 111.947 57.1834 111.947 56.7871 111.947C56.2621 111.947 55.7371 111.947 55.2121 111.947C54.9515 111.948 54.6909 111.948 54.4224 111.948C54.031 111.948 54.031 111.948 53.6317 111.948C49.4035 111.949 45.1753 111.955 40.9471 111.964C36.6051 111.973 32.2631 111.978 27.9211 111.978C25.4836 111.978 23.0461 111.98 20.6086 111.988C18.5332 111.993 16.4578 111.995 14.3823 111.992C13.3237 111.99 12.2652 111.99 11.2066 111.996C10.2366 112.001 9.26676 112 8.29674 111.995C7.94675 111.994 7.59674 111.995 7.24676 111.999C4.84017 112.021 2.88943 111.772 1.11002 110.037C0.363417 108.761 0.198407 107.628 0.196189 106.162C0.195264 105.986 0.194339 105.81 0.193386 105.628C0.190881 105.038 0.191828 104.447 0.192764 103.857C0.191682 103.429 0.19039 103.002 0.188907 102.574C0.18546 101.399 0.185057 100.224 0.185164 99.0485C0.184764 97.7811 0.181588 96.5137 0.178798 95.2463C0.173244 92.475 0.17132 89.7037 0.170091 86.9324C0.1693 85.2021 0.167715 83.4718 0.165959 81.7415C0.161204 76.9509 0.157217 72.1603 0.156511 67.3696C0.156465 67.0631 0.156419 66.7565 0.156372 66.4406C0.156283 65.8191 0.156195 65.1976 0.156107 64.5761C0.156063 64.2676 0.156019 63.9591 0.155973 63.6412C0.155929 63.3323 0.155885 63.0234 0.15584 62.7052C0.154979 57.699 0.14841 52.6929 0.139325 47.6868C0.130073 42.5472 0.125364 37.4077 0.125291 32.2682C0.125149 29.3824 0.123081 26.4967 0.116056 23.6109C0.110102 21.1539 0.108326 18.6969 0.111985 16.2399C0.113728 14.9864 0.113512 13.7329 0.107996 12.4794C0.102992 11.3313 0.103624 10.1834 0.108695 9.03529C0.109544 8.62053 0.108351 8.20576 0.104878 7.79101C0.0874727 5.56845 0.116511 3.62797 1.47457 1.74929C2.95145 0.272411 4.42108 0.219806 6.40428 0.226088Z" fill="#00737A"/>
<path d="M20.1882 19.2479C23.5857 19.225 26.9832 19.208 30.3808 19.1975C31.9589 19.1925 33.537 19.1856 35.1151 19.1745C36.6421 19.1639 38.1691 19.1581 39.6961 19.1556C40.2746 19.1539 40.853 19.1504 41.4315 19.1451C49.059 19.078 55.3527 20.3984 61.0181 25.8098C61.1648 25.9383 61.3114 26.0667 61.4624 26.1991C65.3013 29.6971 67.6121 35.5318 68.0662 40.635C68.0705 41.0144 68.0716 41.3939 68.0701 41.7733C68.0696 41.9699 68.069 42.1664 68.0684 42.3689C68.0673 42.5933 68.0673 42.5933 68.0662 42.8223C68.2796 42.8201 68.4931 42.818 68.7131 42.8157C70.7263 42.7962 72.7394 42.7815 74.7527 42.7719C75.7877 42.7668 76.8227 42.76 77.8576 42.7489C78.8567 42.7384 79.8557 42.7326 80.8548 42.73C81.2357 42.7283 81.6166 42.7247 81.9975 42.7195C82.5317 42.7124 83.0655 42.7115 83.5997 42.7119C84.0555 42.7087 84.0555 42.7087 84.5204 42.7054C85.4786 42.8452 85.8636 43.109 86.5368 43.7944C86.9399 44.4724 87.0838 44.9688 87.0847 45.7544C87.0862 45.95 87.0876 46.1456 87.089 46.3471C87.0881 46.5606 87.0872 46.7742 87.0862 46.9941C87.0872 47.222 87.0881 47.4499 87.0891 47.6847C87.0916 48.4502 87.0906 49.2157 87.0896 49.9812C87.0907 50.5293 87.092 51.0774 87.0934 51.6255C87.0967 53.1158 87.0968 54.6062 87.0962 56.0965C87.0959 57.3401 87.0971 58.5837 87.0983 59.8273C87.1011 62.9289 87.1009 66.0306 87.0994 69.1322C87.0981 71.8247 87.1008 74.5172 87.1055 77.2097C87.1102 79.975 87.1121 82.7404 87.1113 85.5057C87.1108 87.0579 87.1115 88.6101 87.1148 90.1624C87.1179 91.6224 87.1174 93.0823 87.1142 94.5423C87.1137 95.0782 87.1143 95.614 87.1163 96.1498C87.1189 96.8814 87.1169 97.6129 87.1138 98.3445C87.1156 98.5564 87.1174 98.7682 87.1193 98.9865C87.1077 100.29 86.9708 101.236 86.2938 102.366C85.2521 103.091 84.3871 103.186 83.1368 103.188C82.9717 103.189 82.8065 103.19 82.6364 103.191C82.0862 103.194 81.5361 103.192 80.9859 103.189C80.5902 103.19 80.1944 103.192 79.7987 103.193C78.7262 103.197 77.6537 103.195 76.5811 103.193C75.4581 103.191 74.3351 103.193 73.2121 103.194C71.3266 103.195 69.4411 103.194 67.5556 103.19C65.376 103.186 63.1964 103.187 61.0168 103.191C59.1447 103.195 57.2727 103.195 55.4006 103.193C54.2828 103.192 53.165 103.192 52.0472 103.194C50.9965 103.196 49.9458 103.195 48.8952 103.191C48.5096 103.19 48.1241 103.19 47.7386 103.192C47.2122 103.194 46.686 103.191 46.1597 103.188C45.8652 103.187 45.5707 103.187 45.2673 103.187C44.4132 103.086 43.9618 102.876 43.2766 102.366C42.2631 101.012 42.4502 99.4345 42.4647 97.8195C42.4646 97.5088 42.4645 97.198 42.4644 96.8779C42.4642 96.0288 42.4684 95.1799 42.4735 94.3309C42.4781 93.4425 42.4785 92.554 42.4794 91.6656C42.4817 89.9846 42.4876 88.3037 42.495 86.6227C42.5031 84.7084 42.5071 82.7941 42.5108 80.8798C42.5184 76.9432 42.5312 73.0066 42.5475 69.0701C40.6504 69.0962 38.7533 69.1235 36.8563 69.1525C35.9755 69.166 35.0947 69.179 34.2138 69.1909C33.3645 69.2025 32.5151 69.2152 31.6658 69.2288C31.1826 69.2361 30.6994 69.2423 30.2162 69.2485C29.9242 69.2534 29.6323 69.2582 29.3315 69.2632C29.073 69.267 28.8145 69.2708 28.5482 69.2746C27.977 69.248 27.977 69.248 27.7223 69.5561C27.6872 70.2485 27.6675 70.9356 27.6578 71.6285C27.6538 71.8459 27.6498 72.0632 27.6457 72.2871C27.6371 72.7607 27.6291 73.2342 27.6215 73.7078C27.6093 74.4563 27.5955 75.2048 27.5812 75.9532C27.5408 78.0818 27.5029 80.2105 27.4673 82.3392C27.4453 83.6395 27.4211 84.9398 27.3955 86.2401C27.3862 86.7369 27.3778 87.2337 27.3702 87.7306C27.3597 88.4243 27.3463 89.1179 27.3322 89.8115C27.3298 90.0185 27.3274 90.2254 27.3249 90.4386C27.2916 91.86 27.2916 91.86 26.7502 92.4014C26.1004 92.4643 26.1004 92.4643 25.2844 92.466C24.9921 92.4666 24.6998 92.4672 24.3986 92.4679C24.0919 92.466 23.7852 92.4641 23.4692 92.4622C23.0092 92.465 23.0092 92.465 22.5398 92.4679C22.2475 92.4673 21.9552 92.4666 21.6541 92.466C21.3848 92.4654 21.1155 92.4649 20.8381 92.4643C20.1882 92.4014 20.1882 92.4014 19.7022 91.9154C19.6557 91.295 19.6399 90.7012 19.6453 90.0807C19.6449 89.7931 19.6449 89.793 19.6446 89.4996C19.6444 88.8528 19.6477 88.206 19.651 87.5592C19.6516 87.0967 19.652 86.6342 19.6522 86.1716C19.6533 84.9067 19.6576 83.6418 19.6624 82.3769C19.667 81.0332 19.669 79.6895 19.6713 78.3458C19.6773 75.2133 19.6879 72.0808 19.6992 68.9483C19.704 67.5728 19.7083 66.1972 19.7125 64.8217C19.7336 58.1709 19.7631 51.5202 19.7967 44.8695C19.8076 42.6764 19.8172 40.4833 19.8266 38.2902C19.8359 36.1343 19.8461 33.9784 19.857 31.8225C19.8634 30.5531 19.8694 29.2836 19.8745 28.0142C19.8792 26.8425 19.8851 25.6709 19.8919 24.4992C19.8941 24.0707 19.896 23.6421 19.8974 23.2135C19.8994 22.6317 19.9029 22.05 19.9068 21.4682C19.907 21.2977 19.9072 21.1272 19.9075 20.9515C19.9175 19.7894 19.9175 19.7894 20.1882 19.2479Z" fill="#FDFEFE"/>
<path d="M68.0662 42.8222C70.295 42.7997 72.5238 42.7824 74.7527 42.7719C75.7878 42.7668 76.8227 42.7599 77.8577 42.7489C78.8567 42.7383 79.8557 42.7325 80.8549 42.73C81.2358 42.7282 81.6167 42.7247 81.9975 42.7194C82.5317 42.7124 83.0655 42.7114 83.5997 42.7119C83.9036 42.7097 84.2074 42.7075 84.5205 42.7053C85.4787 42.8451 85.8636 43.109 86.5369 43.7944C86.9399 44.4724 87.0838 44.9688 87.0848 45.7544C87.0862 45.95 87.0876 46.1456 87.0891 46.3471C87.0881 46.5606 87.0872 46.7741 87.0863 46.9941C87.0872 47.222 87.0881 47.4499 87.0891 47.6847C87.0916 48.4502 87.0906 49.2156 87.0897 49.9811C87.0907 50.5292 87.092 51.0773 87.0934 51.6254C87.0967 53.1158 87.0968 54.6061 87.0962 56.0965C87.096 57.3401 87.0971 58.5836 87.0983 59.8272C87.1012 62.9289 87.101 66.0305 87.0994 69.1322C87.0981 71.8247 87.1009 74.5172 87.1055 77.2097C87.1102 79.975 87.1121 82.7403 87.1113 85.5056C87.1109 87.0579 87.1115 88.6101 87.1149 90.1623C87.1179 91.6223 87.1175 93.0823 87.1143 94.5423C87.1137 95.0781 87.1144 95.6139 87.1164 96.1497C87.1189 96.8813 87.117 97.6128 87.1139 98.3444C87.1157 98.5563 87.1175 98.7682 87.1193 98.9865C87.1077 100.29 86.9708 101.236 86.2938 102.366C85.2521 103.091 84.3872 103.186 83.1368 103.188C82.9717 103.189 82.8066 103.19 82.6364 103.191C82.0862 103.194 81.5361 103.192 80.9859 103.189C80.5902 103.19 80.1945 103.192 79.7988 103.193C78.7262 103.196 77.6537 103.195 76.5812 103.193C75.4582 103.191 74.3352 103.193 73.2121 103.194C71.3266 103.195 69.4411 103.193 67.5556 103.19C65.376 103.186 63.1965 103.187 61.0169 103.191C59.1448 103.195 57.2727 103.195 55.4006 103.193C54.2828 103.192 53.165 103.192 52.0472 103.194C50.9965 103.196 49.9459 103.195 48.8952 103.191C48.5097 103.19 48.1242 103.19 47.7386 103.192C47.2123 103.194 46.6861 103.191 46.1597 103.188C45.8652 103.187 45.5707 103.187 45.2673 103.187C44.4132 103.086 43.9618 102.876 43.2766 102.366C42.2632 101.012 42.4503 99.4344 42.4647 97.8195C42.4646 97.5087 42.4645 97.198 42.4644 96.8778C42.4642 96.0288 42.4685 95.1798 42.4736 94.3308C42.4781 93.4424 42.4786 92.554 42.4794 91.6656C42.4817 89.9846 42.4877 88.3036 42.495 86.6227C42.5047 84.3502 42.5086 82.0778 42.5129 79.8053C42.5197 76.2268 42.5342 72.6485 42.5475 69.07C37.8156 69.07 33.0837 69.07 28.2084 69.07C28.2084 68.9898 28.2084 68.9096 28.2084 68.827C28.56 68.8256 28.56 68.8256 28.9188 68.8243C31.1457 68.8152 33.3726 68.8011 35.5994 68.7823C36.7439 68.7727 37.8882 68.7649 39.0327 68.7611C40.1406 68.7574 41.2483 68.749 42.3561 68.7375C42.7753 68.7339 43.1945 68.7319 43.6137 68.7317C50.3442 68.7251 56.4169 66.5709 61.2612 61.779C63.9004 58.7871 65.6112 55.326 66.851 51.5715C66.9284 51.344 67.0058 51.1166 67.0855 50.8823C67.592 49.1635 67.7037 47.4176 67.8421 45.6399C67.864 45.3688 67.8858 45.0978 67.9082 44.8185C67.9617 44.1531 68.0143 43.4877 68.0662 42.8222Z" fill="#7AC1BD"/>
<path d="M68.7953 7.58215C69.0625 7.80852 69.3294 8.03535 69.5961 8.26237C69.819 8.45176 69.819 8.45176 70.0465 8.64499C70.7575 9.26963 71.415 9.94368 72.0762 10.6201C73.1316 11.6886 74.2028 12.696 75.3572 13.658C75.7648 14.0605 76.1696 14.4659 76.5724 14.8732C77.0124 15.3109 77.4525 15.7485 77.8928 16.1859C79.1664 17.4516 80.4388 18.7185 81.7106 19.9862C82.4786 20.7517 83.2472 21.5168 84.0167 22.2808C84.763 23.0218 85.508 23.764 86.2523 24.5069C86.536 24.7898 86.8203 25.0723 87.1049 25.3543C87.5011 25.747 87.8958 26.1412 88.2901 26.5357C88.5153 26.7598 88.7404 26.9839 88.9724 27.2148C89.4533 27.7541 89.4533 27.7541 89.4533 28.2401C87.3405 28.2684 85.2278 28.2899 83.1149 28.3031C82.1335 28.3094 81.1523 28.318 80.171 28.3318C79.2224 28.3451 78.2739 28.3523 77.3251 28.3554C76.9649 28.3577 76.6046 28.362 76.2445 28.3686C74.0954 28.4064 72.3089 28.301 70.4965 27.025C69.9487 26.462 69.9487 26.462 69.6307 25.9161C69.5201 25.7353 69.4095 25.5546 69.2956 25.3683C68.7916 24.3288 68.7655 23.4107 68.7677 22.2604C68.7677 22.1014 68.7676 21.9425 68.7676 21.7787C68.7677 21.2553 68.7696 20.732 68.7715 20.2086C68.772 19.8449 68.7723 19.4812 68.7726 19.1175C68.7735 18.1618 68.7759 17.2061 68.7786 16.2504C68.7811 15.2746 68.7822 14.2987 68.7834 13.3229C68.786 11.4093 68.7902 9.49574 68.7953 7.58215Z" fill="#7AC1BD"/>
<path d="M52.9852 88.3871C53.2564 88.3854 53.5275 88.3837 53.8069 88.382C54.7044 88.3777 55.6017 88.3805 56.4992 88.3838C57.1221 88.3831 57.745 88.3822 58.3679 88.381C59.6739 88.3795 60.9797 88.3815 62.2857 88.3862C63.7949 88.3915 65.304 88.3897 66.8132 88.3844C68.2658 88.3794 69.7184 88.38 71.171 88.3828C71.7888 88.3835 72.4067 88.3827 73.0245 88.3804C73.8875 88.3779 74.7501 88.3817 75.6131 88.3871C75.8694 88.3852 76.1257 88.3832 76.3898 88.3812C78.1114 88.4012 78.1114 88.4012 78.9179 88.9565C79.3873 89.7132 79.3748 90.3022 79.3673 91.1863C79.371 91.6299 79.371 91.6299 79.3749 92.0825C79.2458 92.8875 79.2458 92.8875 78.9163 93.4158C77.8912 94.1238 76.8565 93.9969 75.6392 93.9893C75.3708 93.9914 75.1024 93.9935 74.8258 93.9957C73.9374 94.0012 73.0492 93.9995 72.1607 93.9973C71.5439 93.9986 70.927 94.0001 70.3101 94.0019C69.0166 94.0044 67.7232 94.0034 66.4298 93.9998C64.9357 93.9957 63.4418 93.9995 61.9478 94.0074C60.5092 94.0146 59.0706 94.0151 57.632 94.0128C57.0205 94.0126 56.409 94.0143 55.7974 94.0179C54.9427 94.0221 54.0883 94.0186 53.2335 94.0131C52.9803 94.0159 52.7271 94.0187 52.4663 94.0217C51.3123 94.0065 50.7503 93.9955 49.803 93.291C49.2446 92.4897 49.1966 92.0199 49.2158 91.0496C49.2153 90.6431 49.2153 90.6431 49.2148 90.2284C49.5995 88.151 51.2435 88.3737 52.9852 88.3871Z" fill="#00737A"/>
<path d="M51.456 76.7513C51.6883 76.7485 51.9207 76.7458 52.1601 76.7429C52.4147 76.7437 52.6692 76.7444 52.9314 76.7451C53.1998 76.743 53.4682 76.741 53.7447 76.7389C54.6345 76.7332 55.5241 76.7329 56.4138 76.7332C57.031 76.7315 57.6482 76.7296 58.2655 76.7276C59.5604 76.7244 60.8553 76.7239 62.1502 76.7254C63.646 76.727 65.1417 76.7215 66.6376 76.7124C68.0773 76.7041 69.517 76.7025 70.9568 76.7035C71.569 76.7031 72.1812 76.7007 72.7934 76.6964C73.6494 76.691 74.505 76.6933 75.3609 76.6976C75.7413 76.6928 75.7413 76.6928 76.1293 76.6879C77.2871 76.7014 77.8471 76.7102 78.7966 77.4189C79.3361 78.1917 79.3887 78.6016 79.3521 79.5357C79.3441 79.9084 79.3441 79.9084 79.336 80.2886C79.248 80.9623 79.1275 81.3842 78.7597 81.9509C78.1759 82.2428 77.8112 82.2258 77.1591 82.2281C76.8069 82.2301 76.8069 82.2301 76.4476 82.2323C76.1892 82.2325 75.9307 82.2328 75.6644 82.2331C75.2572 82.2349 75.2572 82.2349 74.8417 82.2367C73.9405 82.2403 73.0392 82.242 72.138 82.2433C71.5138 82.2447 70.8896 82.2461 70.2654 82.2475C69.1232 82.2497 67.9809 82.2513 66.8386 82.252C65.1563 82.2531 63.4741 82.2573 61.7918 82.2644C60.3356 82.2703 58.8794 82.2721 57.4231 82.2726C56.8031 82.2733 56.183 82.2753 55.5629 82.2784C54.697 82.2826 53.8312 82.2821 52.9653 82.2806C52.7074 82.2828 52.4494 82.285 52.1836 82.2873C51.9482 82.286 51.7127 82.2846 51.4701 82.2832C51.1629 82.2838 51.1629 82.2838 50.8495 82.2843C50.1949 82.1716 49.9813 82.0002 49.5955 81.4648C49.523 80.7938 49.4937 80.19 49.5044 79.5205C49.5016 79.3445 49.4988 79.1684 49.4958 78.987C49.5029 77.7042 49.5029 77.7042 49.8954 77.1617C50.4488 76.7562 50.7731 76.7544 51.456 76.7513Z" fill="#00737A"/>
<path d="M28.4769 41.7903C28.6897 41.7908 28.9025 41.7912 29.1218 41.7917C29.4878 41.7907 29.4878 41.7907 29.8612 41.7897C30.2643 41.7923 30.2643 41.7923 30.6755 41.795C31.0987 41.7949 31.0987 41.7949 31.5305 41.7948C32.4668 41.7951 33.4031 41.7989 34.3394 41.8027C34.9871 41.8036 35.6348 41.8043 36.2825 41.8048C37.8155 41.8063 39.3484 41.8103 40.8814 41.8151C42.6264 41.8206 44.3714 41.8232 46.1164 41.8257C49.7065 41.8308 53.2965 41.8393 56.8866 41.8501C56.8932 42.4324 56.898 43.0147 56.9018 43.597C56.9038 43.7607 56.9058 43.9243 56.9079 44.093C56.9124 45.0027 56.8369 45.8244 56.6435 46.7109C52.9487 46.7279 49.2538 46.7407 45.5589 46.7486C43.8433 46.7524 42.1278 46.7575 40.4122 46.7659C38.7576 46.7739 37.103 46.7781 35.4484 46.78C34.8161 46.7814 34.1839 46.784 33.5516 46.7879C32.6682 46.7932 31.7849 46.794 30.9015 46.7936C30.6382 46.7962 30.3749 46.7989 30.1037 46.8016C29.8634 46.8006 29.6232 46.7996 29.3756 46.7985C29.1666 46.7992 28.9576 46.7999 28.7422 46.8006C28.0823 46.6896 27.8678 46.5208 27.4793 45.9817C27.4134 45.3458 27.3884 44.7775 27.4034 44.1438C27.4026 43.9773 27.4018 43.8108 27.401 43.6392C27.4196 41.914 27.4196 41.914 28.4769 41.7903Z" fill="#00737A"/>
<path d="M29.8066 29.6079C30.0486 29.6066 30.0486 29.6066 30.2955 29.6052C30.8299 29.6032 31.3641 29.6065 31.8985 29.6101C32.2719 29.6102 32.6453 29.6101 33.0187 29.6097C33.8031 29.6097 34.5874 29.6123 35.3717 29.6167C36.3694 29.6221 37.367 29.6223 38.3646 29.6207C39.1372 29.6199 39.9097 29.6215 40.6823 29.6239C41.0496 29.6248 41.4169 29.6251 41.7841 29.6247C45.8245 29.624 49.9048 29.9601 52.998 32.8578C53.2677 33.1915 53.5293 33.5318 53.7821 33.8784C53.9095 34.0519 54.0369 34.2253 54.1682 34.404C54.2632 34.5354 54.3583 34.6668 54.4562 34.8021C51.0824 34.8191 47.7086 34.832 44.3348 34.8399C42.7682 34.8437 41.2017 34.8489 39.6352 34.8571C38.124 34.865 36.6128 34.8694 35.1016 34.8713C34.5245 34.8726 33.9473 34.8753 33.3702 34.8792C32.5631 34.8845 31.7561 34.8852 30.9489 34.8849C30.5894 34.8888 30.5894 34.8888 30.2227 34.8928C30.0025 34.8918 29.7824 34.8908 29.5556 34.8898C29.3647 34.8905 29.1738 34.8911 28.9772 34.8918C28.3015 34.7765 27.969 34.5479 27.4793 34.073C27.3866 33.4252 27.3539 32.8947 27.373 32.2502C27.3712 32.0858 27.3695 31.9213 27.3677 31.7518C27.3761 31.0961 27.3832 30.5733 27.7505 30.0159C28.4322 29.5432 28.9829 29.6075 29.8066 29.6079Z" fill="#00737A"/>
<path d="M30.8821 53.4054C31.1287 53.4053 31.3754 53.4052 31.6295 53.405C32.4449 53.4057 33.2601 53.4132 34.0755 53.4209C34.6408 53.4227 35.206 53.4241 35.7713 53.425C37.2593 53.4287 38.7471 53.4383 40.2351 53.449C41.7533 53.459 43.2716 53.4634 44.7899 53.4683C47.769 53.4788 50.7481 53.4953 53.7271 53.5158C52.0067 56.162 49.441 57.5659 46.4361 58.3765C45.3834 58.581 44.3823 58.6536 43.3107 58.6626C43.0709 58.6649 43.0709 58.6649 42.8263 58.6674C42.3024 58.6721 41.7784 58.675 41.2545 58.6774C40.9848 58.6789 40.9848 58.6789 40.7097 58.6804C39.7599 58.6855 38.8102 58.689 37.8604 58.6913C36.8802 58.694 35.9002 58.7023 34.9201 58.712C34.1649 58.7183 33.4098 58.7204 32.6546 58.7212C32.2931 58.7224 31.9317 58.7252 31.5703 58.7297C31.0653 58.7357 30.5607 58.7354 30.0558 58.7338C29.6252 58.7359 29.6252 58.7359 29.186 58.7381C28.2978 58.5947 28.013 58.3599 27.4793 57.6474C27.3502 56.8955 27.3502 56.8955 27.3578 56.0677C27.3541 55.6579 27.3541 55.6579 27.3502 55.2398C27.6948 53.2334 29.1987 53.3802 30.8821 53.4054Z" fill="#00737A"/>
<path d="M64.2408 65.5418C64.5546 65.5387 64.8685 65.5356 65.1919 65.5325C65.5348 65.5342 65.8777 65.5362 66.2207 65.5384C66.572 65.5378 66.9234 65.5368 67.2748 65.5356C68.0112 65.5342 68.7474 65.5363 69.4837 65.5408C70.4277 65.5463 71.3715 65.5432 72.3155 65.5373C73.0411 65.5338 73.7666 65.5349 74.4921 65.5375C74.8402 65.5381 75.1883 65.5373 75.5363 65.535C76.0227 65.5326 76.509 65.537 76.9954 65.5418C77.4106 65.5429 77.4106 65.5429 77.8342 65.5441C78.5167 65.6675 78.5167 65.6675 78.9703 66.1145C79.349 66.8364 79.3425 67.408 79.337 68.2194C79.3398 68.6292 79.3398 68.6292 79.3427 69.0473C79.2339 69.8921 79.118 70.1791 78.5167 70.7713C77.8342 70.8931 77.8342 70.8931 76.9954 70.8932C76.5246 70.8966 76.5246 70.8966 76.0443 70.9001C75.7013 70.8976 75.3584 70.8948 75.0155 70.8919C74.6641 70.8919 74.3127 70.8923 73.9613 70.8929C73.225 70.8933 72.4888 70.8902 71.7524 70.8847C70.8085 70.8778 69.8647 70.8784 68.9207 70.8815C68.1951 70.8832 67.4696 70.8813 66.744 70.8783C66.3959 70.8772 66.0479 70.8771 65.6998 70.8781C65.2135 70.8788 64.7271 70.8743 64.2408 70.8695C63.964 70.8682 63.6871 70.8669 63.4019 70.8655C62.7194 70.7713 62.7194 70.7713 62.2658 70.4494C61.8146 69.7825 61.8942 69.1465 61.8992 68.3561C61.8973 68.0582 61.8954 67.7602 61.8935 67.4533C62.0829 65.8615 62.6975 65.5461 64.2408 65.5418Z" fill="#00737A"/>
<path d="M30.8821 53.4054C31.1287 53.4053 31.3754 53.4052 31.6295 53.405C32.4449 53.4057 33.2601 53.4132 34.0755 53.4209C34.6408 53.4227 35.206 53.4241 35.7713 53.425C37.2593 53.4287 38.7471 53.4383 40.2351 53.449C41.7533 53.459 43.2716 53.4634 44.7899 53.4683C47.769 53.4788 50.7481 53.4953 53.7271 53.5158C53.3409 53.9777 53.123 54.2214 52.5212 54.3346C52.339 54.3339 52.1569 54.3333 51.9692 54.3326C51.7596 54.3336 51.5501 54.3346 51.3341 54.3356C51.1049 54.333 50.8758 54.3304 50.6396 54.3277C50.3977 54.3278 50.1558 54.3279 49.9066 54.328C49.1057 54.3275 48.305 54.3218 47.5041 54.3161C46.9493 54.3147 46.3946 54.3137 45.8399 54.313C44.3787 54.3102 42.9176 54.303 41.4564 54.295C39.9659 54.2875 38.4753 54.2842 36.9848 54.2805C34.0593 54.2727 31.1339 54.2602 28.2084 54.2449C28.2084 55.4479 28.2084 56.6509 28.2084 57.8904C28.8653 57.8977 28.8653 57.8977 29.5355 57.905C30.9818 57.9215 32.4282 57.9401 33.8745 57.9603C34.7514 57.9724 35.6284 57.9837 36.5054 57.993C37.3516 58.0019 38.1978 58.0132 39.044 58.0261C39.5242 58.0328 40.0044 58.0371 40.4847 58.0413C40.7766 58.0462 41.0684 58.051 41.3692 58.056C41.7553 58.0608 41.7553 58.0608 42.1493 58.0658C42.7905 58.1335 42.7905 58.1335 43.5196 58.6195C41.5718 58.6421 39.624 58.6593 37.6761 58.6699C36.7715 58.675 35.8671 58.6819 34.9626 58.6929C34.0896 58.7034 33.2167 58.7092 32.3436 58.7118C32.0107 58.7136 31.6777 58.7171 31.3448 58.7223C30.8783 58.7294 30.4116 58.7298 29.945 58.7299C29.6795 58.7321 29.414 58.7342 29.1404 58.7364C28.2837 58.5911 28.0002 58.3312 27.4793 57.6474C27.3502 56.8955 27.3502 56.8955 27.3578 56.0677C27.3541 55.6579 27.3541 55.6579 27.3502 55.2398C27.6948 53.2334 29.1987 53.3802 30.8821 53.4054Z" fill="#00737A"/>
<path d="M52.2689 32.6147C53.072 32.8825 53.4175 33.2982 53.8837 33.9733C53.9915 34.128 54.0992 34.2828 54.2101 34.4422C54.2913 34.561 54.3725 34.6797 54.4562 34.8021C51.0782 34.8134 47.7002 34.822 44.3222 34.8272C42.7537 34.8298 41.1853 34.8332 39.6169 34.8387C38.1041 34.844 36.5913 34.8469 35.0786 34.8482C34.5005 34.8491 33.9225 34.8508 33.3445 34.8535C32.5368 34.857 31.7291 34.8575 30.9214 34.8572C30.6808 34.859 30.4403 34.8607 30.1925 34.8625C29.9727 34.8619 29.7528 34.8612 29.5264 34.8605C29.3353 34.861 29.1442 34.8614 28.9473 34.8619C28.4515 34.8021 28.4515 34.8021 27.7224 34.316C27.8026 34.0754 27.8828 33.8348 27.9654 33.5869C28.0456 33.7473 28.1258 33.9077 28.2084 34.073C36.5494 34.1532 44.8903 34.2334 53.4841 34.316C53.0831 33.7546 52.6821 33.1932 52.2689 32.6147Z" fill="#00737A"/>
<path d="M81.4331 20.22C82.1239 20.5343 82.6259 20.8654 83.1626 21.4005C83.3036 21.54 83.4447 21.6795 83.59 21.8232C83.8137 22.0484 83.8137 22.0484 84.0419 22.2782C84.197 22.4328 84.3521 22.5874 84.5118 22.7467C84.8384 23.0729 85.1644 23.3998 85.4898 23.7272C85.9899 24.2299 86.4925 24.7299 86.9954 25.2297C87.3123 25.547 87.6291 25.8644 87.9457 26.1819C88.0968 26.3321 88.2479 26.4822 88.4036 26.6369C89.4533 27.6982 89.4533 27.6982 89.4533 28.2401C83.9995 28.2401 78.5458 28.2401 72.9269 28.2401C72.8467 28.0797 72.7665 27.9193 72.6838 27.7541C77.8969 27.6739 83.11 27.5937 88.4811 27.511C86.1623 25.2018 86.1623 25.2018 83.8421 22.8939C83.553 22.6055 83.2639 22.317 82.9749 22.0285C82.8227 21.8776 82.6705 21.7266 82.5137 21.5711C82.1489 21.2063 81.7902 20.8354 81.4331 20.463C81.4331 20.3828 81.4331 20.3026 81.4331 20.22Z" fill="#7AC1BD"/>
<path d="M93.0988 25.0807C94.7854 26.6737 95.9042 28.3614 96.0691 30.7093C96.0761 31.6068 96.0592 32.5008 96.0332 33.398C96.0264 33.7272 96.0199 34.0565 96.0137 34.3858C95.9968 35.2453 95.9752 36.1046 95.9526 36.964C95.9303 37.8437 95.9124 38.7236 95.8941 39.6035C95.8578 41.3246 95.8165 43.0456 95.7721 44.7665C95.6919 44.7665 95.6117 44.7665 95.5291 44.7665C95.5271 44.583 95.5252 44.3994 95.5231 44.2103C95.5042 42.4795 95.483 40.7487 95.4592 39.018C95.4471 38.1283 95.4358 37.2385 95.4266 36.3487C95.4176 35.4899 95.4063 34.6311 95.3935 33.7723C95.3868 33.2855 95.3825 32.7987 95.3782 32.3119C95.3734 32.0151 95.3685 31.7184 95.3636 31.4127C95.3603 31.1514 95.3571 30.8902 95.3537 30.6211C95.2857 29.9375 95.1327 29.5594 94.8 28.9692C94.7348 28.7036 94.6697 28.4379 94.6025 28.1642C94.2595 27.099 93.7641 26.4598 93.0988 25.5668C93.0988 25.4064 93.0988 25.246 93.0988 25.0807Z" fill="#00737A"/>
<path d="M93.0988 25.0807C94.7988 26.6863 95.9359 28.4359 96.0607 30.8072C96.0457 31.0027 96.0307 31.1982 96.0152 31.3996C95.8548 31.3996 95.6944 31.3996 95.5291 31.3996C95.0697 29.8574 95.0697 29.8574 94.9538 29.1667C94.7255 27.8249 94.2793 27.0031 93.4007 25.9626C93.0988 25.5668 93.0988 25.5668 93.0988 25.0807Z" fill="#00737A"/>
<path d="M75.8433 14.6301C76.7657 14.9925 77.2069 15.5432 77.7876 16.3314C77.0585 16.3314 77.0585 16.3314 76.4053 15.7542C75.8433 15.1162 75.8433 15.1162 75.8433 14.6301Z" fill="#7AC1BD"/>
<path d="M67.5801 49.1411C67.6603 49.1411 67.7405 49.1411 67.8232 49.1411C67.8297 49.4955 67.8344 49.85 67.8384 50.2044C67.8412 50.4018 67.844 50.5991 67.8469 50.8025C67.8232 51.3284 67.8232 51.3284 67.5801 51.8145C67.4197 51.8145 67.2593 51.8145 67.0941 51.8145C67.3067 49.9614 67.3067 49.9614 67.5801 49.1411Z" fill="#7AC1BD"/>
<path d="M3.17579 0.777222C2.96314 1.71898 2.96314 1.71898 2.68972 1.9924C2.28479 2.00227 1.87947 2.00278 1.47455 1.9924C2.62896 0.777222 2.62896 0.777222 3.17579 0.777222Z" fill="#00737A"/>
<path d="M71.7117 10.0125C72.53 10.3511 72.9234 10.7364 73.4129 11.4707C72.6838 11.4707 72.6838 11.4707 72.1522 11.015C71.7117 10.4985 71.7117 10.4985 71.7117 10.0125Z" fill="#00737A"/>
</svg>
